<svg xmlns="http://www.w3.org/2000/svg" xmlns:xlink="http://www.w3.org/1999/xlink" xmlns:svgjs="http://svgjs.com/svgjs" width="288" height="288" version="1.1" style=""><rect id="backgroundrect" width="100%" height="100%" x="0" y="0" fill="none" stroke="none"/><defs id="SvgjsDefs1002"/><g class="currentLayer" style=""><title>Layer 1</title><g id="SvgjsG1008" transform="matrix(0.9167,0,0,0.9167,11.995201278065167,11.99519785777349) " class="selected" fill="#efbdae" fill-opacity="1"><svg xmlns="http://www.w3.org/2000/svg" width="288" height="288" viewBox="0 0 149.27 149.27" id="svg_1"><g data-name="Group 41" fill="#efbdae" class="color000 svgShape" id="svg_2" fill-opacity="1"><g data-name="BonApp Vector" fill="#efbdae" class="color000 svgShape" id="svg_3" fill-opacity="1"><g data-name="&amp;lt;Group&amp;gt;" fill="#efbdae" class="color000 svgShape" id="svg_4" fill-opacity="1"><path fill="#efbdae" d="M74.6370000000475,149.2700000002384 a74.635,74.635 0 1 1 74.633,-74.633 a74.635,74.635 0 0 1 -74.633,74.633 zm0,-140.655 a66.1,66.1 0 1 0 66.1,66.1 a66.1,66.1 0 0 0 -66.1,-66.1 z" data-name="&amp;lt;Compound Path&amp;gt;" class="color545454 svgShape" id="svg_5" fill-opacity="1"/></g><g data-name="&amp;lt;Group&amp;gt;" fill="#efbdae" class="color000 svgShape" id="svg_6" fill-opacity="1"><path fill="#efbdae" d="M53.89799996471405,67.25400009155274 H32.57499996471405 a4.2620000000000005,4.2620000000000005 0 1 1 0,-8.525 H53.89799996471405 a4.2620000000000005,4.2620000000000005 0 1 1 0,8.525 z" data-name="&amp;lt;Path&amp;gt;" class="color545454 svgShape" id="svg_7" fill-opacity="1"/></g><circle cx="106.00300025939941" cy="62.641000747680664" r="11.461000442504883" fill="#efbdae" data-name="&amp;lt;Path&amp;gt;" class="color545454 svgShape" id="svg_8" fill-opacity="1"/><g data-name="&amp;lt;Group&amp;gt;" fill="#efbdae" class="color000 svgShape" id="svg_9" fill-opacity="1"><path fill="#efbdae" d="M74.63500131225587,93.12399877929687 a11.814,11.814 0 0 0 -7.464,-3.422 a17.2,17.2 0 0 0 -9,1.6580000000000004 A65.758,65.758 0 0 0 47.64900131225586,97.51699877929687 A14.193,14.193 0 0 1 38.37500131225586,100.65499877929688 a3.8810000000000002,3.8810000000000002 0 0 1 -3.114,-4.617 c0.7670000000000002,-2.8680000000000003 4.371,-4.736 4.6,-5.022 s0.11800000000000004,-0.4740000000000001 -0.3530000000000001,-0.4170000000000001 a12.591,12.591 0 0 0 -5.586,2.815 a8.761,8.761 0 0 0 -2.186,8.316 a11.1,11.1 0 0 0 6.654,6.91 a32.05,32.05 0 0 0 10.5,2.325 a40.6,40.6 0 0 0 15.226,-2.335 a33.03,33.03 0 0 0 10.514,-6.867 " data-name="&amp;lt;Path&amp;gt;" class="color545454 svgShape" id="svg_10" fill-opacity="1"/><path fill="#efbdae" d="M74.63700103759766,101.75799713134765 a24.885,24.885 0 0 0 10.471,6.94 a39.873,39.873 0 0 0 15.043,2.283 a31.878,31.878 0 0 0 10.471,-2.335 a11.08,11.08 0 0 0 6.6370000000000005,-6.921 a8.761,8.761 0 0 0 -2.2,-8.316 a12.58,12.58 0 0 0 -5.586,-2.815 c-0.459,-0.06400000000000003 -0.5750000000000002,0.128 -0.3530000000000001,0.4170000000000001 s3.838,2.1310000000000002 4.606,5.022 a3.824,3.824 0 0 1 -3.059,4.563 A13.937,13.937 0 0 1 101.40400103759765,97.45799713134767 a65.549,65.549 0 0 0 -10.492,-6.157 a16.767,16.767 0 0 0 -8.849,-1.6580000000000004 A11.366,11.366 0 0 0 74.63700103759766,93.12399713134766 " data-name="&amp;lt;Path&amp;gt;" class="color545454 svgShape" id="svg_11" fill-opacity="1"/></g></g></g></svg></g></g></svg>