<svg xmlns="http://www.w3.org/2000/svg" width="74.521" height="64" viewBox="0 0 74.521 64">
  <g id="delivery-bike" transform="translate(0 -35.81)" opacity="0.55">
    <g id="Group_742" data-name="Group 742" transform="translate(0 35.81)">
      <path id="Path_3305" data-name="Path 3305" d="M62.023,75.792a28.263,28.263,0,0,0,.025-2.837c-.211-5.25-2.391-10.234-4.7-15.511-.4-.907-.8-1.835-1.2-2.776h.267a3,3,0,0,0,2.994-2.99V44.839a3,3,0,0,0-2.994-2.99H46.129a6.426,6.426,0,0,0-6.25,4.956H34.89a1.453,1.453,0,1,0,0,2.907h4.988a6.434,6.434,0,0,0,4.57,4.731L47.584,68.4c.991,4.4-.732,7.008-2.352,8.416a9.958,9.958,0,0,1-9.651,1.689,7.581,7.581,0,0,1-4.922-6.4l-.121-.879h1.232a1.454,1.454,0,0,0,1.455-1.453V65.763A4.985,4.985,0,0,0,29.7,61V37.263a1.454,1.454,0,0,0-1.455-1.453H3.229a1.454,1.454,0,0,0-1.455,1.453v5.961a1.455,1.455,0,0,0,2.911,0V38.717h5.13v8.747A1.456,1.456,0,0,0,12.034,48.7l3.7-2.278,3.7,2.278a1.456,1.456,0,0,0,2.219-1.237V38.717h5.134V60.787H4.685V56.275a1.455,1.455,0,0,0-2.911,0V69.31A9.929,9.929,0,0,0,0,74.99V86.435a4.277,4.277,0,0,0,4.273,4.271H7.756a10.576,10.576,0,0,0,20.946,0h21.83a10.576,10.576,0,0,0,20.945,0h1.589a1.454,1.454,0,0,0,1.455-1.453A13.525,13.525,0,0,0,62.023,75.792ZM18.743,44.86,16.5,43.478a1.457,1.457,0,0,0-1.528,0L12.726,44.86V38.717h6.017Zm34.394-.1h3.277a.089.089,0,0,1,.083.083v6.839a.089.089,0,0,1-.083.083H53.137a9.161,9.161,0,0,1,0-7.005Zm-7.313,6.991-.077-.007a3.509,3.509,0,0,1-3.123-3.373c0-.036.006-.072.006-.108s0-.073-.006-.108a3.509,3.509,0,0,1,3.505-3.394h3.921a11.8,11.8,0,0,0,0,7.005H46.129C46.026,51.761,45.924,51.756,45.823,51.747ZM4.685,63.694H28.244a2.073,2.073,0,0,1,2.072,2.069v2.563H4.685ZM18.227,96.9a7.671,7.671,0,0,1-7.522-6.2H25.753a7.674,7.674,0,0,1-7.526,6.2Zm-10.5-9.1a10.606,10.606,0,0,1,21.007,0Zm38.42,0H31.667a13.519,13.519,0,0,0-26.877,0H4.273a1.365,1.365,0,0,1-1.362-1.365V74.99a7.042,7.042,0,0,1,1.081-3.758H27.6l.174,1.273a10.505,10.505,0,0,0,6.783,8.725A12.342,12.342,0,0,0,38.887,82a12.685,12.685,0,0,0,8.256-2.986c3.135-2.725,4.3-6.718,3.281-11.245l-2.943-13.1h5.507c.562,1.35,1.134,2.664,1.692,3.939,2.29,5.237,4.268,9.761,4.458,14.464.2,4.952-.929,8.738-3.35,11.254C53.571,86.63,50.326,87.8,46.145,87.8ZM61,96.9a7.671,7.671,0,0,1-7.522-6.2H68.528A7.674,7.674,0,0,1,61,96.9Zm-4.791-9.1a12.684,12.684,0,0,0,1.678-1.461,14.826,14.826,0,0,0,3.777-7.656A10.62,10.62,0,0,1,71.51,87.8h-15.3Z" transform="translate(0 -35.81)"/>
      <path id="Path_3306" data-name="Path 3306" d="M13.643,124.643a1.458,1.458,0,1,0-1.455-1.46v.008A1.452,1.452,0,0,0,13.643,124.643Z" transform="translate(-10.414 -109.243)"/>
    </g>
  </g>
</svg>
