<svg xmlns="http://www.w3.org/2000/svg" width="52.356" height="64" viewBox="0 0 52.356 64">
  <g id="_34305f8e767f4fcfd1188e701a03acb9" data-name="34305f8e767f4fcfd1188e701a03acb9" transform="translate(-99.181 -10)">
    <path id="Path_3464" data-name="Path 3464" d="M150.621,46.571a32.5,32.5,0,0,0-3.507-7.693,42.175,42.175,0,0,0-5.734-7.432l-2-2,.137,2.8a12.006,12.006,0,0,1-1.639,4.6,21.327,21.327,0,0,0-.353-11.22,19.108,19.108,0,0,0-5.029-7.536,39.359,39.359,0,0,0-11.09-7.033L119.1,10l.843,2.4c1.855,5.3.79,11.265-3.161,17.724a44.077,44.077,0,0,1-5.715,7.347l-3.142-5.427L106.915,33.1c-6.028,6.354-8.549,12.878-7.5,19.389a21.655,21.655,0,0,0,3.533,8.614,34.711,34.711,0,0,0,5.689,6.439,43.386,43.386,0,0,0,7.628,5.512l1.757.947-.15-1.992a43.21,43.21,0,0,1,.6-9.757c.712-3.944,2.292-8.986,5.826-12.264-.3,4.193,1.809,7.118,4.369,10.658a46.879,46.879,0,0,1,6.087,10.436l.425,1.058,1.038-.47c8.817-4.016,13.879-9.417,15.061-16.052A19.711,19.711,0,0,0,150.621,46.571Zm-1.5,8.673c-1.006,5.629-5.31,10.325-12.8,13.962a50.905,50.905,0,0,0-5.9-9.835c-2.965-4.1-4.918-6.811-3.507-11.618l.784-2.664-2.384,1.417a16.8,16.8,0,0,0-6.27,6.916,29.945,29.945,0,0,0-2.737,8.49,45.727,45.727,0,0,0-.686,8.209,44.452,44.452,0,0,1-5.532-4.206c-3.364-3.017-7.57-7.856-8.523-13.773-.875-5.447,1.123-10.978,5.943-16.457l3.05,5.27,1-.914a44.435,44.435,0,0,0,7.047-8.731,30.267,30.267,0,0,0,3.84-9.038,19.511,19.511,0,0,0,.189-8.229c6.969,3.468,11.175,7.5,12.834,12.284,1.528,4.408.594,8.705-.163,12.153a32.32,32.32,0,0,0-.634,3.474l-.385,3.827,2.338-3.056a27.716,27.716,0,0,0,4.631-8.183,43.091,43.091,0,0,1,4.023,5.518C147.591,43.861,150.138,49.569,149.119,55.244Z" transform="translate(0 0)"/>
  </g>
</svg>
