<svg id="Filled_expand" enable-background="new 0 0 512 512" height="512" viewBox="0 0 512 512" width="512" xmlns="http://www.w3.org/2000/svg"><path d="m72.007 179.777c71.856-71.856 188.359-71.856 260.215 0 55.939 55.939 68.335 138.946 37.166 206.871-8.86 19.325-21.249 37.427-37.166 53.344s-34.019 28.306-53.344 37.166c-67.925 31.169-150.932 18.774-206.871-37.166-71.856-71.856-71.856-188.358 0-260.215z" fill="#ff593f"/><path d="m202.114 463.885c-41.135 0-79.808-16.019-108.895-45.105-60.043-60.044-60.044-157.744 0-217.789 29.087-29.086 67.76-45.105 108.896-45.105 41.135 0 79.808 16.019 108.895 45.105 22.677 22.677 37.509 51.303 42.891 82.783 5.272 30.835 1.199 62.082-11.778 90.363-7.603 16.582-18.069 31.599-31.112 44.643-13.044 13.044-28.062 23.511-44.634 31.108-19.959 9.158-42.177 13.997-64.263 13.997z" fill="#fcbf58"/><path d="m202.33 501.916c-10.891 0-21.829-.925-32.729-2.789-39.277-6.715-74.98-25.207-103.251-53.477-74.859-74.861-74.859-196.668 0-271.529 74.862-74.86 196.668-74.861 271.53 0 28.27 28.27 46.762 63.973 53.477 103.25 6.567 38.409 1.485 77.351-14.696 112.615-9.486 20.689-22.534 39.418-38.78 55.665-16.248 16.248-34.977 29.295-55.667 38.781-25.255 11.587-52.402 17.484-79.884 17.484zm-124.666-316.482c-68.622 68.623-68.622 180.279 0 248.902 25.915 25.915 58.639 42.866 94.633 49.02 35.22 6.022 70.923 1.365 103.245-13.468 18.959-8.692 36.125-20.653 51.023-35.551s26.859-32.064 35.551-51.021c14.834-32.326 19.491-68.028 13.47-103.248-6.154-35.994-23.105-68.717-49.021-94.632-68.622-68.625-180.279-68.623-248.901-.002z"/><path d="m202.295 471.244c-9.15 0-18.341-.777-27.5-2.343-33.005-5.643-63.005-21.182-86.76-44.936-30.472-30.472-47.254-70.986-47.254-114.08 0-43.093 16.782-83.608 47.254-114.08 8.413-8.413 17.724-15.883 27.676-22.204l8.578 13.506c-8.964 5.694-17.354 12.427-24.939 20.012-27.45 27.45-42.568 63.946-42.568 102.766s15.118 75.316 42.568 102.767c21.399 21.399 48.42 35.396 78.142 40.478 29.081 4.974 58.564 1.128 85.257-11.121 15.655-7.178 29.83-17.055 42.133-29.357 8.151-8.151 15.305-17.216 21.262-26.944l13.645 8.355c-6.614 10.801-14.552 20.862-23.593 29.902-13.651 13.651-29.389 24.615-46.775 32.586-21.223 9.738-44.034 14.693-67.126 14.693z"/><path d="m348.781 377.191-14.543-6.673c12.248-26.691 16.094-56.173 11.121-85.257-5.081-29.722-19.078-56.743-40.479-78.143-43.488-43.488-109.97-54.905-165.433-28.408l-6.896-14.438c61.569-29.414 135.37-16.741 183.644 31.532 23.754 23.754 39.293 53.755 44.936 86.759 5.517 32.274 1.247 64.996-12.35 94.628z"/><path d="m332.223 439.993c15.917-15.917 28.305-34.019 37.166-53.344l8.089 8.089c24.996 24.996 24.996 65.513 0 90.51-12.502 12.501-28.879 18.752-45.255 18.752-16.377 0-32.753-6.251-45.255-18.752l-8.089-8.089c19.325-8.861 37.427-21.249 53.344-37.166z" fill="#cc4733"/><path d="m332.223 512c-19.227 0-37.308-7.492-50.912-21.096l-8.089-8.089c-1.852-1.852-2.68-4.494-2.217-7.071.463-2.578 2.159-4.766 4.54-5.857 18.956-8.691 36.122-20.652 51.021-35.55 14.898-14.898 26.859-32.064 35.551-51.021 1.092-2.381 3.28-4.077 5.858-4.54 2.577-.464 5.22.365 7.071 2.217l8.089 8.089c28.072 28.073 28.072 73.751 0 101.823-13.605 13.603-31.686 21.095-50.912 21.095zm-39.809-32.62.211.21c10.582 10.582 24.645 16.41 39.598 16.41s29.016-5.828 39.598-16.409c21.835-21.834 21.835-57.361 0-79.196l-.21-.21c-8.885 16.676-20.198 31.932-33.73 45.465-13.534 13.533-28.79 24.847-45.467 33.73z"/><path d="m72.007 179.777c15.917-15.917 34.019-28.306 53.344-37.166l-8.089-8.089c-24.996-24.996-65.513-24.996-90.51 0-12.501 12.502-18.752 28.879-18.752 45.255s6.251 32.753 18.752 45.255l8.089 8.089c8.861-19.325 21.249-37.427 37.166-53.344z" fill="#cc4733"/><ellipse cx="127.616" cy="366.454" fill="#c6e67f" rx="16" ry="27.708"/><path d="m127.616 402.162c-1.384 0-2.768-.358-4.007-1.076-12.332-7.136-19.993-20.406-19.993-34.632s7.661-27.496 19.993-34.633c2.479-1.434 5.535-1.435 8.014 0 12.332 7.137 19.993 20.407 19.993 34.632 0 14.226-7.661 27.496-19.993 34.632-1.239.718-2.623 1.077-4.007 1.077zm0-53.582c-5.021 4.509-8 11.007-8 17.874s2.979 13.364 8 17.873c5.021-4.509 8-11.006 8-17.873s-2.978-13.364-8-17.874z"/><ellipse cx="286.968" cy="299.531" fill="#c6e67f" rx="27.708" ry="16"/><path d="m286.968 323.531c-14.226 0-27.496-7.661-34.632-19.993-1.435-2.479-1.435-5.535 0-8.014 7.136-12.332 20.406-19.993 34.632-19.993s27.496 7.661 34.632 19.993c1.435 2.479 1.435 5.535 0 8.014-7.136 12.332-20.407 19.993-34.632 19.993zm-17.873-24c4.509 5.021 11.007 8 17.873 8s13.364-2.979 17.873-8c-4.509-5.021-11.007-8-17.873-8s-13.364 2.979-17.873 8z"/><path d="m118.708 298.455-6.335-2.112c-11.1-3.7-16.668-16.097-12.058-26.852l3.981-9.288c2.75-6.416 8.645-10.934 15.554-11.921l3.435-.491c12.779-1.826 23.915 8.754 22.746 21.61l-1.081 11.891c-1.168 12.844-14.007 21.242-26.242 17.163z" fill="#ff7b66"/><path d="m125.071 307.496c-2.979 0-5.978-.479-8.894-1.452h.001l-6.335-2.111c-7.408-2.469-13.491-7.97-16.689-15.093s-3.269-15.323-.193-22.5l3.98-9.289c3.825-8.922 12.169-15.316 21.777-16.688l3.436-.491c8.532-1.218 17 1.486 23.245 7.419s9.379 14.256 8.599 22.834l-1.081 11.891c-.779 8.571-5.357 16.188-12.56 20.899-4.629 3.028-9.925 4.581-15.286 4.581zm1.067-51.907c-.57 0-1.146.041-1.721.123l-3.437.491c-4.117.588-7.693 3.329-9.333 7.153l-3.979 9.288c-1.338 3.121-1.309 6.545.082 9.643 1.392 3.098 3.932 5.395 7.153 6.469l6.334 2.111h.001c3.498 1.167 7.275.677 10.361-1.341 3.087-2.019 5.05-5.283 5.384-8.957l1.081-11.891c.334-3.677-1.009-7.244-3.686-9.786-2.254-2.143-5.187-3.303-8.24-3.303z"/><path d="m235.61 254.842 9.328-2.332c10.716-2.679 17.231-13.538 14.552-24.254l-3.553-14.21c-1.791-7.166-7.386-12.761-14.552-14.552l-13.264-3.316c-11.078-2.77-22.223 4.283-24.462 15.481l-.325 1.625c-.793 3.967-.365 8.082 1.229 11.801l7.814 18.233c3.866 9.023 13.709 13.905 23.233 11.524z" fill="#ff7b66"/><path d="m230.675 263.455c-10.978 0-21.142-6.462-25.652-16.985l-7.814-18.233c-2.24-5.228-2.835-10.94-1.72-16.52l.325-1.627c1.517-7.581 5.949-14.034 12.483-18.168 6.532-4.135 14.263-5.378 21.764-3.504l13.265 3.316c10.053 2.513 17.859 10.319 20.373 20.373l3.553 14.211c1.813 7.255.693 14.783-3.154 21.196-3.848 6.414-9.963 10.944-17.219 12.758l-9.328 2.332c-2.299.574-4.605.851-6.876.851zm-7.437-59.881c-2.239 0-4.437.633-6.386 1.867-2.8 1.772-4.7 4.538-5.35 7.787l-.325 1.626c-.479 2.391-.224 4.84.737 7.08l7.814 18.233c2.332 5.442 8.198 8.348 13.939 6.915l9.328-2.332c3.11-.777 5.73-2.719 7.38-5.467 1.648-2.749 2.129-5.975 1.352-9.084l-3.553-14.211c-1.077-4.308-4.423-7.654-8.731-8.731l-13.265-3.316c-.975-.246-1.961-.367-2.94-.367z"/><path d="m220.155 370.758 2.332-9.328c2.679-10.716 13.538-17.231 24.254-14.552l14.21 3.553c7.166 1.791 12.761 7.386 14.552 14.552l3.316 13.264c2.77 11.078-4.283 22.223-15.481 24.462l-1.625.325c-3.967.793-8.082.365-11.801-1.229l-18.233-7.814c-9.022-3.866-13.905-13.71-11.524-23.233z" fill="#ff7b66"/><path d="m257.769 411.427c-3.763 0-7.494-.763-11.008-2.269l-18.232-7.814c-12.7-5.443-19.485-19.123-16.134-32.527l2.332-9.328c1.813-7.255 6.344-13.371 12.757-17.219 6.414-3.848 13.94-4.969 21.197-3.154l14.211 3.553c10.054 2.514 17.86 10.321 20.373 20.374l3.315 13.264c1.876 7.501.632 15.23-3.503 21.764s-10.587 10.967-18.169 12.484l-1.626.325c-1.831.366-3.676.547-5.513.547zm-29.853-38.729c-1.436 5.745 1.473 11.607 6.915 13.94l18.232 7.814c2.242.961 4.691 1.216 7.08.737l1.626-.325c3.25-.65 6.015-2.55 7.787-5.35 1.771-2.8 2.306-6.113 1.502-9.327l-3.316-13.264c-1.077-4.309-4.423-7.654-8.731-8.731l-14.211-3.553c-6.412-1.604-12.945 2.311-14.552 8.731z"/><path d="m196.457 338.17-11.312-11.315 2.829-2.828c4.678-4.678 4.678-12.291-.001-16.97l-2.828-2.828 11.312-11.314 2.829 2.829c10.918 10.917 10.918 28.681.001 39.598z"/><path d="m168.175 219.376-2.829-2.829c-4.679-4.678-12.292-4.68-16.971 0l-2.828 2.828-11.314-11.312 2.828-2.829c10.917-10.917 28.68-10.918 39.599 0l2.828 2.828z"/><path d="m168.174 422.725c-7.17 0-14.341-2.729-19.8-8.188l-2.828-2.828 11.314-11.313 2.828 2.828c4.678 4.679 12.293 4.679 16.971 0l2.828-2.828 11.314 11.313-2.828 2.828c-5.458 5.459-12.629 8.188-19.799 8.188z"/><path d="m171.488 256.63h16v16h-16z" transform="matrix(.707 -.707 .707 .707 -134.55 204.419)"/><path d="m177.144 364.111h16v16h-16z" transform="matrix(.707 -.707 .707 .707 -208.894 239.905)"/><path d="m301.595 352.797h16v16h-16z" transform="matrix(.707 -.707 .707 .707 -164.443 324.582)"/><path d="m290.282 239.66h16v16h-16z" transform="matrix(.707 -.707 .707 .707 -87.757 283.455)"/><path d="m75.321 318.856h16v16h-16z" transform="matrix(.707 -.707 .707 .707 -206.718 154.651)"/><ellipse cx="456" cy="128" fill="#fdce7f" rx="48" ry="88"/><path d="m440 280v176c0 8.837 7.163 16 16 16 8.837 0 16-7.163 16-16v-245.014c-5.005 3.243-10.389 5.014-16 5.014s-10.995-1.771-16-5.014v53.014z" fill="#fdce7f"/><path d="m512 128c0-53.832-24.598-96-56-96s-56 42.168-56 96c0 39.023 12.926 71.917 32 87.062v48.938h16v-40.929c.552.13 1.107.245 1.664.348.08.015.16.029.24.044.053.009.107.019.16.028.132.023.265.045.397.066.008.001.016.003.024.004 1.812.291 3.651.439 5.515.439s3.703-.149 5.515-.439c.008-.001.016-.003.024-.004.132-.021.264-.043.396-.066.054-.009.108-.019.163-.028.079-.014.158-.029.237-.043.557-.103 1.113-.218 1.666-.348v232.928c0 4.411-3.589 8-8 8s-8-3.589-8-8v-176h-16v176c0 13.233 10.767 24 24 24s24-10.767 24-24v-240.938c19.073-15.145 31.999-48.039 31.999-87.062zm-51.786 79.503c-2.803.638-5.625.638-8.429 0-8.217-1.926-16.307-9.381-22.704-21.109-8.435-15.466-13.081-36.204-13.081-58.394s4.646-42.928 13.082-58.394c7.489-13.731 17.301-21.606 26.918-21.606s19.429 7.875 26.918 21.606c8.436 15.466 13.082 36.204 13.082 58.394s-4.646 42.928-13.082 58.394c-6.397 11.728-14.487 19.183-22.704 21.109z"/><path d="m464 88h16v16h-16z"/><path d="m376 104c0 32.54-16.19 61.3-40.96 78.66-.93-.97-1.87-1.93-2.82-2.88-39.86-39.86-93.46-57.61-145.56-53.26-1.74-7.22-2.66-14.76-2.66-22.52 0-53.02 42.98-96 96-96s96 42.98 96 96z" fill="#fdce7f"/><path d="m122.919 128.866c-28.071-28.072-73.748-28.074-101.823 0-13.604 13.603-21.096 31.684-21.096 50.911s7.492 37.308 21.096 50.912l8.089 8.089c1.514 1.514 3.555 2.343 5.657 2.343.47 0 .943-.042 1.414-.126 2.578-.463 4.767-2.159 5.858-4.54 8.691-18.957 20.651-36.123 35.55-51.021 14.897-14.898 32.063-26.859 51.021-35.55 2.381-1.091 4.077-3.279 4.54-5.857s-.365-5.22-2.218-7.072zm-56.569 45.255c-13.532 13.533-24.846 28.789-33.729 45.465l-.21-.21c-10.583-10.582-16.411-24.645-16.411-39.599s5.828-29.017 16.41-39.598c10.917-10.917 25.257-16.375 39.597-16.375 14.341 0 28.681 5.458 39.599 16.376l.21.21c-16.677 8.884-31.933 20.198-45.466 33.731z"/><path d="m280 0c-57.346 0-104 46.654-104 104 0 8.25.97 16.458 2.883 24.395.925 3.837 4.505 6.425 8.443 6.098 51.786-4.327 102.536 14.245 139.238 50.946.91.91 1.811 1.83 2.702 2.76 1.559 1.624 3.659 2.462 5.776 2.462 1.596 0 3.2-.476 4.589-1.449 27.783-19.472 44.369-51.326 44.369-85.212 0-57.346-46.654-104-104-104zm55.782 172.061c-35.992-34.915-83.851-54.185-133.668-54.185-2.988 0-5.992.069-8.992.209-.746-4.636-1.122-9.351-1.122-14.085 0-48.523 39.477-88 88-88s88 39.477 88 88c0 26.433-11.932 51.409-32.218 68.061z"/><path d="m184 104c0 7.75.92 15.3 2.66 22.52-14.95 1.26-29.77 4.33-44.11 9.22-4.21-9.73-6.55-20.46-6.55-31.74 0-44.18 35.82-80 80-80 3.38 0 6.7.23 9.97.64-25.33 17.28-41.97 46.38-41.97 79.36z" fill="#fcb641"/><path d="m142.55 143.742c-3.109 0-6.044-1.824-7.342-4.825-4.783-11.054-7.208-22.802-7.208-34.917 0-48.523 39.477-88 88-88 3.562 0 7.25.236 10.966.702 3.3.414 6 2.827 6.78 6.06.781 3.233-.521 6.612-3.268 8.486-24.093 16.438-38.478 43.634-38.478 72.752 0 6.989.82 13.935 2.438 20.646.547 2.269.075 4.664-1.29 6.556s-3.49 3.094-5.815 3.29c-14.397 1.214-28.596 4.181-42.2 8.82-.855.291-1.726.43-2.583.43zm61.459-110.743c-34.013 5.727-60.009 35.385-60.009 71.001 0 7.484 1.129 14.793 3.363 21.813 9.728-2.882 19.696-4.995 29.787-6.315-.764-5.111-1.15-10.296-1.15-15.498 0-26.646 10.192-51.931 28.009-71.001z"/><path d="m264 40h16v16h-16z"/><path d="m320 64h16v16h-16z"/><path d="m280 96h16v16h-16z"/><path d="m224 64h16v16h-16z"/><path d="m328 120h16v16h-16z"/></svg>