<?xml version="1.0" encoding="iso-8859-1"?>
<!-- Generator: Adobe Illustrator 19.0.0, SVG Export Plug-In . SVG Version: 6.00 Build 0)  -->
<svg version="1.1" id="Capa_1" xmlns="http://www.w3.org/2000/svg" xmlns:xlink="http://www.w3.org/1999/xlink" x="0px" y="0px"
	 viewBox="0 0 512.001 512.001" style="enable-background:new 0 0 512.001 512.001;" xml:space="preserve">
<g>
	<path style="fill:#E5E5E5;" d="M169.003,32.476c0.025,2.085-0.286,4.153-0.925,6.137l-25.893,82.891H99.563l29.592-94.997
		c3.38-10.744,14.83-16.713,25.574-13.333C163.177,15.83,168.936,23.632,169.003,32.476z"/>
	<path style="fill:#E5E5E5;" d="M282.915,32.56c-0.017,2.051-0.328,4.086-0.925,6.053l-25.893,82.891h-42.707l29.676-94.997
		c3.38-10.744,14.838-16.713,25.582-13.325C277.115,15.847,282.89,23.682,282.915,32.56z"/>
	<path style="fill:#E5E5E5;" d="M404.394,32.476c0.025,2.085-0.286,4.153-0.925,6.137l-25.893,82.891h-42.623l29.592-94.997
		c3.38-10.744,14.83-16.713,25.574-13.333C398.568,15.83,404.326,23.632,404.394,32.476z"/>
</g>
<path style="fill:#F57B78;" d="M263.327,121.504h55.737L255.173,299.56c-13.375,37.318-14.956,77.847-4.54,116.098l0.084,0.336
	c5.893,21.648,18.856,40.706,36.822,54.14l14.88,11.181c15.998,12.013,35.477,18.512,55.485,18.495h-114.08
	c-20.008,0.017-39.487-6.482-55.485-18.495l-14.88-11.181c-17.965-13.434-30.929-32.492-36.822-54.14l-0.084-0.336
	c-10.416-38.251-8.836-78.78,4.54-116.098l63.892-178.056C204.984,121.504,263.327,121.504,263.327,121.504z"/>
<g>
	<path style="fill:#D32144;" d="M387.748,262.57c1.059,2.354,1.606,4.901,1.597,7.482c-0.034,5.17-2.085,10.113-5.717,13.787
		c-3.657,3.716-8.659,5.801-13.871,5.801h-43.295c-4.741,0-9.315-1.74-12.862-4.876l-3.615-3.111
		c-5.986-5.313-8.146-13.728-5.464-21.269l35.309-98.36c1.934-5.414,7.894-8.23,13.308-6.297c3.312,1.185,5.801,3.968,6.616,7.39
		l13.451,56.578C376.735,234.399,381.603,248.758,387.748,262.57z"/>
	<path style="fill:#D32144;" d="M469.631,393.801v10.256c-0.017,17.587-7.465,34.359-20.513,46.153l-0.925,0.841
		c-10.752,9.752-24.75,15.141-39.26,15.132h-51.45c-12.728-0.008-25.12-4.145-35.309-11.77l-14.88-11.181
		c-11.795-8.743-20.336-21.168-24.296-35.309c-3.766-13.417-5.767-27.263-5.969-41.193c0.092-16.637,9.643-31.778,24.632-39.008
		l0.336-0.168c5.691-2.841,11.963-4.304,18.327-4.287h53.215c14.056-0.008,28.028,2.118,41.446,6.305l8.323,2.606
		c10.113,3.195,19.201,9.029,26.313,16.898l4.792,5.296C464.183,365.192,469.597,379.232,469.631,393.801z"/>
</g>
<path style="fill:#FF5750;" d="M503.594,393.801v10.34c0.008,27.07-11.442,52.879-31.526,71.038l-0.925,0.757
	c-16.965,15.384-39.058,23.892-61.958,23.875h-51.282c-20.008,0.017-39.487-6.482-55.485-18.495l-14.88-11.181
	c-17.965-13.434-30.929-32.492-36.822-54.14l-0.084-0.336c-10.416-38.251-8.836-78.78,4.54-116.098l63.892-178.056h65.741
	l21.521,90.457c8.146,34.291,24.8,65.977,48.423,92.139l25.052,27.742C495.103,348.858,503.577,370.926,503.594,393.801z
	 M469.631,404.057v-10.256c-0.034-14.569-5.456-28.617-15.216-39.428l-4.792-5.296c-7.112-7.869-16.2-13.703-26.313-16.898
	l-8.323-2.606c-13.417-4.187-27.389-6.314-41.446-6.305h-53.215c-6.364-0.017-12.635,1.446-18.327,4.287l-0.336,0.168
	c-14.989,7.23-24.539,22.371-24.632,39.008c0.202,13.93,2.203,27.776,5.969,41.193c3.96,14.14,12.501,26.566,24.296,35.309
	l14.88,11.181c10.189,7.625,22.581,11.761,35.309,11.77h51.45c14.51,0.008,28.507-5.38,39.26-15.132l0.925-0.841
	C462.165,438.415,469.622,421.652,469.631,404.057z M389.345,270.052c0.008-2.581-0.538-5.128-1.597-7.482
	c-6.145-13.821-11.013-28.171-14.544-42.875l-13.451-56.578c-1.328-5.591-6.944-9.046-12.535-7.709
	c-3.422,0.815-6.204,3.304-7.39,6.616l-35.309,98.36c-2.682,7.541-0.521,15.956,5.464,21.269l3.615,3.111
	c3.548,3.136,8.121,4.876,12.862,4.876h43.295c5.212,0,10.214-2.085,13.871-5.801C387.261,280.166,389.32,275.222,389.345,270.052z"
	/>
<path style="fill:#FFA4A1;" d="M111.341,476.868c-19.395-14.619-33.392-35.241-39.815-58.663
	c-3.96-14.191-6.305-28.785-7.011-43.497l16.814-0.841c0.631,13.367,2.757,26.616,6.339,39.512
	c5.389,19.958,17.259,37.562,33.753,50.029l14.956,11.181c14.561,10.895,32.257,16.797,50.441,16.814v8.407h57.007
	c-20.008,0.017-39.487-6.482-55.485-18.495l-14.88-11.181c-17.965-13.434-30.929-32.492-36.822-54.14l-0.084-0.336
	c-10.416-38.251-8.836-78.78,4.54-116.098l63.892-178.056H83.674L19.782,299.56c-13.375,37.318-14.956,77.847-4.54,116.098
	l0.084,0.336c5.893,21.648,18.856,40.706,36.822,54.14l14.88,11.181c15.998,12.013,35.477,18.512,55.485,18.495h24.094
	c-7.213-3.111-14.031-7.062-20.319-11.77L111.341,476.868z"/>
<g>
	<path style="fill:#D32144;" d="M186.825,499.81L186.825,499.81v-8.407c-18.184-0.017-35.88-5.918-50.441-16.814l-14.964-11.181
		c-16.494-12.459-28.373-30.054-33.77-50.012c-3.581-12.896-5.708-26.145-6.339-39.512l-16.814,0.841
		c0.706,14.712,3.052,29.306,7.011,43.497c6.423,23.421,20.42,44.043,39.815,58.663l14.964,11.156
		c6.288,4.708,13.106,8.659,20.319,11.77L186.825,499.81L186.825,499.81z"/>
	
		<rect x="54.646" y="249.361" transform="matrix(-0.3369 0.9415 -0.9415 -0.3369 375.0834 251.3776)" style="fill:#D32144;" width="88.756" height="16.813"/>
	<polygon style="fill:#D32144;" points="131.425,192.39 115.62,186.64 124.102,163.134 139.932,168.817 	"/>
	<path style="fill:#D32144;" d="M227.287,476.868c-8.844-6.583-16.62-14.477-23.068-23.421l13.636-9.836
		c5.439,7.549,12.005,14.224,19.47,19.781L227.287,476.868z"/>
	<path style="fill:#D32144;" d="M187.313,417.995c-10.954-39.941-9.306-82.294,4.708-121.268l15.83,5.666
		c-12.846,35.695-14.359,74.476-4.338,111.062l-8.029,2.522L187.313,417.995z"/>
</g>
<path d="M460.988,298.459c-22.673-25.12-38.663-55.535-46.507-88.448l-21.521-90.449c-0.588-2.337-2.161-4.304-4.313-5.397
	l22.774-72.904c0.933-2.833,1.396-5.801,1.379-8.785C412.733,16.57,399.778,3.733,383.873,3.8
	c-12.543,0.059-23.606,8.222-27.356,20.185l-27.785,89.112h-61.202l22.53-72.13c0.815-2.732,1.244-5.557,1.261-8.407
	c-0.008-15.906-12.904-28.785-28.81-28.777c-12.585,0.008-23.707,8.188-27.465,20.202l-27.835,89.112h-53.593l22.438-71.836
	c0.916-2.833,1.379-5.801,1.353-8.785C177.342,16.57,164.388,3.733,148.482,3.8c-12.543,0.059-23.606,8.222-27.356,20.185
	l-27.785,89.112h-9.668c-3.548,0-6.709,2.228-7.911,5.565L11.871,296.727c-14.039,39.041-15.67,81.47-4.657,121.478
	c6.423,23.438,20.454,44.069,39.89,58.654l14.872,11.181c17.478,13.073,38.705,20.151,60.529,20.176h286.672
	c24.834,0.042,48.802-9.138,67.254-25.767l1.236-1.026c21.841-19.764,34.308-47.835,34.333-77.284v-10.34
	c-0.017-24.96-9.264-49.037-25.96-67.591L460.988,298.459z M372.557,29.029c1.976-6.322,8.701-9.844,15.015-7.869
	c4.96,1.547,8.356,6.12,8.415,11.316c0.017,1.236-0.16,2.455-0.538,3.632l-24.052,76.99h-25.01L372.557,29.029z M251.079,29.029
	c1.597-4.968,6.196-8.356,11.408-8.407c6.616-0.017,11.997,5.322,12.022,11.938c-0.017,1.202-0.202,2.396-0.546,3.548l-24.043,76.99
	h-25.094L251.079,29.029z M137.166,29.029c1.976-6.322,8.701-9.844,15.015-7.869c4.96,1.547,8.356,6.12,8.415,11.316
	c0.017,1.236-0.16,2.455-0.538,3.632l-24.052,76.99h-25.01L137.166,29.029z M186.825,491.404
	c-18.184-0.017-35.88-5.918-50.441-16.814l-14.964-11.181c-16.494-12.459-28.373-30.054-33.77-50.012
	c-3.581-12.896-5.708-26.145-6.339-39.512l-16.814,0.841c0.706,14.712,3.052,29.306,7.011,43.497
	c6.423,23.421,20.42,44.043,39.815,58.663l14.964,11.156c1.58,1.185,3.237,2.278,4.884,3.363h-8.659
	c-18.184-0.017-35.88-5.918-50.441-16.814L57.192,463.4c-16.519-12.417-28.423-29.996-33.829-49.945
	c-10.029-36.578-8.508-75.367,4.346-111.054l61.883-172.491h103.404L133.14,296.727c-14.031,39.05-15.653,81.47-4.649,121.478
	c6.423,23.43,20.454,44.069,39.882,58.654l14.922,11.181c1.589,1.185,3.245,2.278,4.893,3.363H186.825z M243.824,491.404
	c-18.184-0.017-35.88-5.918-50.441-16.814l-14.888-11.189c-16.536-12.408-28.457-29.987-33.871-49.945
	c-10.021-36.578-8.508-75.367,4.338-111.054l61.941-172.491h96.216l-59.856,166.816c-14.039,39.041-15.67,81.47-4.657,121.478
	c6.423,23.438,20.454,44.069,39.89,58.654l14.872,11.181c1.58,1.185,3.237,2.278,4.884,3.363L243.824,491.404L243.824,491.404z
	 M495.187,404.141c0.025,24.565-10.298,48.003-28.44,64.564l-1.244,1.034c-15.426,13.972-35.502,21.69-56.317,21.664h-51.282
	c-18.184-0.017-35.88-5.918-50.441-16.814l-14.88-11.189c-16.519-12.417-28.423-29.996-33.829-49.945
	c-10.029-36.578-8.508-75.367,4.346-111.054l61.883-172.491h53.181l19.983,83.992c8.491,35.662,25.809,68.616,50.365,95.838
	l25.027,27.742c13.922,15.46,21.631,35.519,21.648,56.326L495.187,404.141L495.187,404.141z"/>
<rect x="54.65" y="249.381" transform="matrix(-0.3372 0.9414 -0.9414 -0.3372 375.1094 251.4879)" width="88.756" height="16.813"/>
<polygon points="139.932,168.817 124.102,163.134 115.62,186.64 131.425,192.39 "/>
<path d="M217.855,443.611l-13.636,9.836c6.448,8.945,14.224,16.839,23.068,23.421l10.038-13.451
	C229.86,457.852,223.294,451.169,217.855,443.611z"/>
<path d="M207.851,302.393l-15.83-5.666c-14.014,38.974-15.662,81.327-4.708,121.268l8.171-2.001l8.029-2.522
	C193.492,376.886,195.005,338.089,207.851,302.393z"/>
<path d="M455.86,343.444c-8.129-8.995-18.495-15.662-30.046-19.336l-8.323-2.598c-14.233-4.43-29.046-6.675-43.951-6.65h-53.215
	c-7.785-0.017-15.46,1.816-22.404,5.338c-17.856,8.693-29.214,26.784-29.298,46.641c0.21,14.645,2.32,29.197,6.271,43.303
	c4.472,15.923,14.09,29.92,27.347,39.806l14.905,11.189c11.635,8.751,25.801,13.468,40.353,13.451h51.45
	c16.612,0.017,32.635-6.162,44.934-17.335l0.883-0.841c14.813-13.392,23.27-32.425,23.287-52.391v-10.223
	c-0.025-16.654-6.221-32.711-17.385-45.069L455.86,343.444z M461.224,404.065c-0.017,15.233-6.473,29.743-17.78,39.949l-0.891,0.841
	c-9.205,8.348-21.194,12.972-33.627,12.955h-51.441c-10.912,0.008-21.538-3.531-30.264-10.088l-14.88-11.181
	c-10.298-7.667-17.764-18.529-21.236-30.887c-3.564-12.711-5.473-25.834-5.666-39.033c0.177-13.543,8.071-25.809,20.319-31.584
	c4.523-2.245,9.517-3.396,14.569-3.363h53.215c13.207-0.017,26.33,1.967,38.94,5.885l8.281,2.598
	c8.693,2.757,16.503,7.768,22.623,14.527l4.775,5.279c8.398,9.273,13.047,21.328,13.064,33.837V404.065z"/>
<path d="M308.043,291.078c5.086,4.481,11.635,6.961,18.419,6.969h43.295c15.443-0.05,27.944-12.551,27.995-27.995
	c0.008-3.766-0.782-7.49-2.32-10.929c-5.935-13.35-10.635-27.213-14.048-41.412l-13.451-56.519
	c-1.984-8.516-9.609-14.527-18.352-14.468c-7.911,0.059-14.947,5.027-17.654,12.459l-35.309,98.36
	c-3.867,10.811-0.74,22.892,7.894,30.458L308.043,291.078z M312.44,263.218l35.309-98.292c0.261-0.799,0.992-1.354,1.833-1.387
	c0.95-0.042,1.782,0.605,1.992,1.53l13.451,56.586c3.649,15.216,8.684,30.063,15.048,44.354c0.563,1.278,0.849,2.648,0.841,4.044
	c-0.05,2.976-1.253,5.809-3.363,7.911c-2.06,2.085-4.868,3.262-7.793,3.27h-43.295c-2.724-0.008-5.347-1.026-7.373-2.842
	l-3.522-3.026C312.137,272.339,310.902,267.53,312.44,263.218z"/>
<g>
</g>
<g>
</g>
<g>
</g>
<g>
</g>
<g>
</g>
<g>
</g>
<g>
</g>
<g>
</g>
<g>
</g>
<g>
</g>
<g>
</g>
<g>
</g>
<g>
</g>
<g>
</g>
<g>
</g>
</svg>
