<?xml version="1.0" encoding="iso-8859-1"?>
<!-- Generator: Adobe Illustrator 19.0.0, SVG Export Plug-In . SVG Version: 6.00 Build 0)  -->
<svg version="1.1" id="Capa_1" xmlns="http://www.w3.org/2000/svg" xmlns:xlink="http://www.w3.org/1999/xlink" x="0px" y="0px"
	 viewBox="0 0 512 512" style="enable-background:new 0 0 512 512;" xml:space="preserve">
<path style="fill:#F3E5B7;" d="M113.471,456.416c-0.012,0-0.024,0-0.036,0c-1.898,0.004-3.468-1.461-3.468-3.359v-59.291h-29.71
	v59.291c0,1.898-1.57,3.363-3.468,3.359c-0.012,0-0.024,0-0.036,0c-10.811,0-19.574,8.288-19.574,18.512s8.764,18.512,19.574,18.512
	c5.443,0,10.359-2.105,13.9-5.5c2.471-2.368,6.447-2.368,8.918,0c3.542,3.395,8.457,5.5,13.9,5.5
	c10.811,0,19.574-8.288,19.574-18.512C133.046,464.704,124.282,456.416,113.471,456.416z"/>
<path style="opacity:0.05;enable-background:new    ;" d="M86.313,491.068c-12.233-3.658-14.494-22.277-2.086-28.573
	c3.648-1.851,6.022-5.517,5.991-9.607c-0.087-11.117-0.318-21.433-0.318-28.332c6.973,1.199,14.688,0.431,20.069-0.708v-30.082
	h-29.71v59.182c0,1.907-1.561,3.468-3.468,3.468h-0.036c-10.811,0-19.574,8.288-19.574,18.512s8.763,18.512,19.574,18.512
	C80.23,493.44,83.487,492.574,86.313,491.068z"/>
<path style="fill:#F3C97F;" d="M160.492,306.258c0-36.955-30.66-66.748-67.93-65.331c-33.492,1.274-60.947,28.28-62.732,61.749
	c-1.165,21.843,8.402,41.495,23.897,54.18c6.155,5.038,9.562,12.697,9.562,20.651v3.682c0,17.576,14.248,31.824,31.824,31.824l0,0
	c17.576,0,31.824-14.248,31.824-31.824v-3.743c0-8.164,3.796-15.771,10.062-21.004C151.355,344.452,160.492,326.425,160.492,306.258
	z"/>
<path style="opacity:0.2;fill:#C85412;enable-background:new    ;" d="M136.999,356.442c14.356-11.99,23.493-30.017,23.493-50.185
	c0-36.955-30.66-66.748-67.93-65.331c-6.236,0.237-12.263,1.369-17.953,3.266c-1.724,13.622-1.722,27.49,0.131,41.222
	c5.184,38.427,23.558,73.768,51.9,100.074c0.19-1.407,0.297-2.841,0.297-4.3v-3.743
	C126.936,369.283,130.733,361.676,136.999,356.442z"/>
<path style="fill:#F3E5B7;" d="M378.954,474.928c0,10.224,8.764,18.512,19.574,18.512c5.443,0,10.359-2.105,13.9-5.5
	c2.471-2.368,6.447-2.368,8.918,0c3.542,3.395,8.457,5.5,13.9,5.5c10.811,0,19.574-8.288,19.574-18.512s-8.764-18.512-19.574-18.512
	c-0.012,0-0.024,0-0.036,0c-1.898,0.004-3.468-1.461-3.468-3.359v-59.291h-29.71v59.291c0,1.898-1.57,3.363-3.468,3.359
	c-0.012,0-0.024,0-0.036,0C387.718,456.416,378.954,464.704,378.954,474.928z"/>
<path style="opacity:0.05;enable-background:new    ;" d="M408.088,491.068c-12.233-3.658-14.494-22.277-2.086-28.573
	c3.648-1.851,6.022-5.517,5.991-9.607c-0.087-11.117-0.318-21.433-0.318-28.332c6.973,1.199,14.688,0.431,20.069-0.708v-30.082
	h-29.71v59.182c0,1.907-1.561,3.468-3.468,3.468h-0.036c-10.811,0-19.574,8.288-19.574,18.512s8.763,18.512,19.574,18.512
	C402.005,493.44,405.262,492.574,408.088,491.068z"/>
<path style="fill:#F3C97F;" d="M351.508,306.258c0-36.955,30.66-66.748,67.93-65.331c33.493,1.274,60.947,28.28,62.733,61.749
	c1.165,21.843-8.402,41.495-23.897,54.18c-6.155,5.038-9.562,12.697-9.562,20.651v3.682c0,17.576-14.248,31.824-31.824,31.824l0,0
	c-17.576,0-31.824-14.248-31.824-31.824v-3.743c0-8.164-3.796-15.771-10.062-21.004
	C360.645,344.452,351.508,326.425,351.508,306.258z"/>
<path style="opacity:0.2;fill:#C85412;enable-background:new    ;" d="M375.001,356.442c-14.356-11.99-23.493-30.017-23.493-50.185
	c0-36.955,30.66-66.748,67.93-65.331c6.236,0.237,12.262,1.369,17.953,3.266c1.723,13.622,1.722,27.49-0.131,41.222
	c-5.184,38.427-23.558,73.768-51.9,100.074c-0.19-1.407-0.297-2.841-0.297-4.3v-3.743
	C385.064,369.283,381.267,361.676,375.001,356.442z"/>
<path style="fill:#F3C97F;" d="M123.256,114.644l3.505-16.049c4.216-19.304-10.872-37.415-30.62-36.754l-75.69,2.531
	C13.229,64.613,7.5,70.537,7.5,77.762l0,0c0,6.552,4.739,12.144,11.203,13.217l49.318,8.194c4.708,0.782,7.633,5.55,6.198,10.101
	L67.022,132.1c-8.719,27.651,11.928,55.81,40.921,55.81h40.774c17.44,0,31.578-14.138,31.578-31.578l0,0
	c0-17.44-14.138-31.578-31.578-31.578h-17.32C126.078,124.754,122.121,119.839,123.256,114.644z"/>
<path style="opacity:0.2;fill:#C85412;enable-background:new    ;" d="M148.717,124.754h-17.32c-0.825,0-1.612-0.131-2.358-0.35
	c-4.934,14.979-12.334,28.887-22.082,41.437c-4.86,6.255-9.22,12.853-13.065,19.717c4.371,1.509,9.084,2.352,14.051,2.352h40.775
	c17.44,0,31.578-14.138,31.578-31.578l0,0C180.295,138.892,166.157,124.754,148.717,124.754z"/>
<path style="fill:#F3C97F;" d="M388.744,114.644l-3.505-16.049c-4.216-19.304,10.872-37.415,30.62-36.754l75.69,2.531
	c7.221,0.242,12.951,6.166,12.951,13.391l0,0c0,6.552-4.739,12.144-11.203,13.217l-49.318,8.194
	c-4.708,0.782-7.633,5.55-6.198,10.101l7.197,22.826c8.719,27.651-11.928,55.81-40.921,55.81h-40.774
	c-17.44,0-31.578-14.138-31.578-31.578l0,0c0-17.44,14.138-31.578,31.578-31.578h17.32
	C385.922,124.754,389.879,119.839,388.744,114.644z"/>
<path style="opacity:0.2;fill:#C85412;enable-background:new    ;" d="M363.284,124.754h17.32c0.825,0,1.612-0.131,2.358-0.35
	c4.934,14.979,12.334,28.887,22.082,41.437c4.86,6.255,9.22,12.853,13.065,19.717c-4.371,1.509-9.084,2.352-14.051,2.352h-40.775
	c-17.44,0-31.578-14.138-31.578-31.578l0,0C331.705,138.892,345.843,124.754,363.284,124.754z"/>
<path style="fill:#F3C97F;" d="M356.829,121.629L345.304,76.93c-8.86-34.361-39.848-58.372-75.333-58.372h-27.942
	c-35.485,0-66.473,24.012-75.332,58.372l-11.525,44.699c-5.539,21.481-15.417,41.601-29.027,59.119l0,0
	c-22.35,28.77-32.196,65.315-27.325,101.419l0,0c9.553,70.805,69.992,123.637,141.439,123.637h31.483
	c71.447,0,131.885-52.832,141.439-123.637l0,0c4.871-36.103-4.975-72.649-27.325-101.419l0,0
	C372.246,163.23,362.368,143.11,356.829,121.629z"/>
<path style="opacity:0.1;fill:#C85412;enable-background:new    ;" d="M194.719,158.164c-8-55.224-8.273-106.689,25.237-136.409
	c-25.704,7.606-46.304,28.198-53.26,55.176l-11.525,44.699c-5.539,21.481-15.417,41.601-29.027,59.119l0,0
	c-22.349,28.769-32.196,65.315-27.325,101.419l0,0c9.553,70.805,69.992,123.637,141.439,123.637h31.483
	c22.998,0,44.852-5.481,64.239-15.267C101.992,387.66,207.747,248.091,194.719,158.164z"/>
<g style="opacity:0.1;">
	<circle cx="160.49" cy="227.389" r="7.212"/>
	<circle cx="229.38" cy="145.069" r="7.212"/>
	<circle cx="276.53" cy="61.823" r="7.212"/>
	<circle cx="447.61" cy="310.549" r="7.212"/>
	<circle cx="414.4" cy="150.949" r="7.212"/>
	<circle cx="102.33" cy="100.149" r="7.212"/>
	<circle cx="371.74" cy="248.089" r="7.212"/>
	<circle cx="310.65" cy="348.579" r="7.212"/>
	<circle cx="66.12" cy="284.389" r="7.212"/>
	<circle cx="97.6" cy="371.269" r="7.212"/>
</g>
<g>
	<circle style="fill:#F3E5B7;" cx="187.51" cy="334.159" r="7.212"/>
	<circle style="fill:#F3E5B7;" cx="358.72" cy="204.969" r="7.212"/>
	<circle style="fill:#F3E5B7;" cx="331.7" cy="255.299" r="7.212"/>
	<circle style="fill:#F3E5B7;" cx="409.68" cy="95.319" r="7.212"/>
	<circle style="fill:#F3E5B7;" cx="382.12" cy="280.199" r="7.212"/>
	<circle style="fill:#F3E5B7;" cx="214.96" cy="71.9" r="7.212"/>
	<circle style="fill:#F3E5B7;" cx="421.61" cy="371.269" r="7.212"/>
</g>
<path d="M491.801,56.875l-75.69-2.531c-11.74-0.396-22.79,4.56-30.31,13.586c-7.521,9.026-10.396,20.787-7.889,32.266l3.505,16.049
	c0.021,0.096,0.085,0.389-0.165,0.699c-0.25,0.311-0.55,0.311-0.649,0.311h-17.157l-9.366-36.322
	c-1.033-4.01-5.119-6.426-9.136-5.39c-4.011,1.034-6.424,5.124-5.39,9.136l10.011,38.824c5.829,22.604,16.045,43.413,30.366,61.849
	c20.979,27.004,30.388,61.927,25.815,95.814c-4.378,32.445-20.364,62.18-45.013,83.727c-24.65,21.547-56.255,33.413-88.994,33.413
	h-31.482c-32.739,0-64.345-11.866-88.994-33.413c-24.648-21.547-40.635-51.282-45.013-83.728
	c-4.572-33.887,4.837-68.81,25.815-95.814c13.52-17.402,23.376-36.924,29.341-58.071c0-0.001,0-0.001,0-0.002
	c0.354-1.254,0.699-2.511,1.025-3.776l11.525-44.699c8.007-31.055,35.999-52.744,68.07-52.744h27.941
	c22.414,0,43.671,10.824,56.863,28.954c2.436,3.35,7.128,4.088,10.477,1.652c3.349-2.437,4.089-7.128,1.651-10.478
	c-16.005-21.996-41.797-35.129-68.992-35.129h-27.941c-38.915,0-72.88,26.317-82.596,64l-10.88,42.196h-17.157
	c-0.099,0-0.398,0-0.648-0.311c-0.25-0.311-0.186-0.604-0.165-0.699l3.505-16.049c2.507-11.479-0.368-23.239-7.889-32.266
	c-7.52-9.026-18.569-13.986-30.31-13.585L20.2,56.875C8.873,57.255,0,66.43,0,77.763c0,10.265,7.35,18.934,17.474,20.615
	l49.317,8.193c0.051,0.009,0.156,0.026,0.239,0.161c0.083,0.136,0.051,0.238,0.035,0.287l-7.196,22.825
	c-4.883,15.483-2.177,31.872,7.423,44.964c9.541,13.014,24.24,20.504,40.36,20.593c-6.494,11.95-11.263,24.773-14.17,38.017
	c-0.401,0.009-0.806-0.001-1.206,0.014c-37.233,1.416-67.953,31.656-69.937,68.845c-1.254,23.49,8.454,45.499,26.637,60.384
	c2.142,1.753,3.831,3.957,5.021,6.553c1.262,2.752,3.98,4.376,6.822,4.376c1.046,0,2.108-0.22,3.121-0.684
	c3.765-1.726,5.418-6.178,3.691-9.943c-2.12-4.624-5.287-8.742-9.156-11.909c-14.442-11.822-22.154-29.31-21.158-47.977
	c1.542-28.904,24.958-52.507,53.681-54.54c-1.267,11.464-1.169,23.103,0.387,34.635c3.795,28.127,15.444,54.419,33.39,75.987
	c-3.473,5.499-5.34,11.805-5.34,18.288v3.743c0,13.412-10.912,24.324-24.324,24.324c-7.795,0-15.176-3.781-19.745-10.113
	c-2.424-3.359-7.113-4.119-10.47-1.694c-3.359,2.423-4.118,7.111-1.694,10.47c2.654,3.679,5.903,6.815,9.554,9.335v35.687
	c-13.04,1.862-23.078,12.691-23.078,25.73c0,14.344,12.146,26.013,27.074,26.013c6.868,0,13.348-2.446,18.359-6.91
	c5.012,4.464,11.491,6.91,18.359,6.91c14.929,0,27.074-11.669,27.074-26.013c0-13.026-10.017-23.847-23.078-25.724v-35.689
	c10.243-7.106,16.969-18.942,16.969-32.326v-3.743c0-2.248,0.426-4.462,1.206-6.569c1.868,1.813,3.781,3.586,5.75,5.307
	c27.384,23.938,62.495,37.12,98.866,37.12h31.482c36.371,0,71.482-13.183,98.866-37.12c1.969-1.721,3.882-3.495,5.75-5.307
	c0.78,2.106,1.206,4.321,1.206,6.569v3.743c0,13.384,6.725,25.22,16.969,32.326v35.683c-13.04,1.862-23.078,12.691-23.078,25.73
	c0,14.344,12.146,26.013,27.074,26.013c6.868,0,13.348-2.446,18.359-6.91c5.012,4.464,11.491,6.91,18.359,6.91
	c14.929,0,27.074-11.669,27.074-26.013c0-13.026-10.017-23.847-23.078-25.724v-35.689c10.243-7.106,16.969-18.942,16.969-32.326
	v-3.683c0-5.892,2.483-11.304,6.813-14.848c18.181-14.883,27.889-36.892,26.635-60.383c-1.983-37.188-32.703-67.428-69.937-68.844
	c-0.4-0.016-0.804-0.005-1.206-0.014c-2.907-13.244-7.676-26.067-14.17-38.017c16.12-0.089,30.819-7.579,40.36-20.592
	c9.6-13.093,12.306-29.481,7.424-44.964l-7.197-22.826c-0.016-0.049-0.048-0.151,0.035-0.287c0.083-0.135,0.189-0.152,0.239-0.161
	l49.317-8.193C504.651,96.697,512,88.027,512,77.763C512,66.43,503.128,57.255,491.801,56.875z M79.389,165.939
	c-6.743-9.196-8.644-20.708-5.214-31.584l7.197-22.826c1.337-4.242,0.77-8.851-1.557-12.643c-2.327-3.791-6.178-6.384-10.565-7.112
	l-49.318-8.193C17.074,83.106,15,80.659,15,77.763c0-3.199,2.505-5.789,5.702-5.896l75.689-2.53
	c7.085-0.238,13.746,2.749,18.283,8.194c4.536,5.444,6.271,12.539,4.759,19.463l-3.505,16.049
	c-1.028,4.706,0.115,9.556,3.136,13.308s7.516,5.903,12.332,5.903h12.719c-5.52,15.819-13.521,30.541-23.893,43.894
	c-1.088,1.4-2.138,2.826-3.17,4.263h-9.11C96.539,180.41,86.131,175.136,79.389,165.939z M125.546,474.928
	c0,6.072-5.416,11.013-12.074,11.013c-3.319,0-6.413-1.213-8.711-3.414c-5.41-5.188-13.887-5.185-19.297-0.001
	c-2.298,2.202-5.392,3.415-8.711,3.415c-6.658,0-12.074-4.94-12.074-11.013s5.416-11.012,12.095-11.012h0.023
	c2.949,0,5.713-1.138,7.786-3.206c2.047-2.043,3.174-4.761,3.174-7.653v-33.251c2.407,0.461,4.867,0.708,7.355,0.708
	c2.514,0,4.971-0.247,7.355-0.7v33.243c0,2.893,1.127,5.61,3.174,7.653c2.073,2.068,4.837,3.206,7.807,3.206h0.024
	C120.13,463.916,125.546,468.855,125.546,474.928z M447.321,474.928c0,6.072-5.416,11.013-12.074,11.013
	c-3.319,0-6.413-1.213-8.711-3.414c-5.41-5.188-13.887-5.185-19.297-0.001c-2.298,2.202-5.392,3.415-8.711,3.415
	c-6.658,0-12.074-4.94-12.074-11.013s5.416-11.012,12.095-11.012h0.023c2.949,0,5.713-1.138,7.786-3.206
	c2.047-2.043,3.174-4.761,3.174-7.653v-33.243c2.384,0.453,4.841,0.7,7.355,0.7s4.971-0.247,7.355-0.7v33.243
	c0,2.893,1.127,5.61,3.174,7.653c2.073,2.068,4.837,3.206,7.807,3.206h0.023C441.905,463.916,447.321,468.855,447.321,474.928z
	 M420.613,283.17c1.556-11.532,1.654-23.17,0.387-34.634c28.724,2.033,52.139,25.635,53.681,54.539
	c0.996,18.668-6.715,36.154-21.158,47.977c-7.824,6.405-12.311,16.048-12.311,26.455v3.683c0,13.412-10.912,24.324-24.324,24.324
	s-24.324-10.912-24.324-24.324v-3.743c0-6.484-1.868-12.79-5.34-18.288C405.169,337.59,416.818,311.296,420.613,283.17z
	 M492.068,83.581l-49.318,8.193c-4.388,0.729-8.238,3.321-10.565,7.112c-2.326,3.792-2.894,8.399-1.557,12.643l7.197,22.827
	c3.43,10.875,1.529,22.387-5.214,31.583c-6.742,9.196-17.149,14.471-28.553,14.471h-9.111c-1.031-1.437-2.082-2.862-3.169-4.262
	c-10.372-13.353-18.374-28.075-23.893-43.895h12.718c4.816,0,9.312-2.151,12.332-5.903c3.021-3.752,4.164-8.602,3.136-13.308
	l-3.505-16.049c-1.512-6.924,0.223-14.018,4.759-19.463c4.536-5.444,11.22-8.433,18.283-8.195l75.69,2.531
	c3.196,0.106,5.701,2.696,5.701,5.896C497,80.659,494.927,83.106,492.068,83.581z"/>
<g>
</g>
<g>
</g>
<g>
</g>
<g>
</g>
<g>
</g>
<g>
</g>
<g>
</g>
<g>
</g>
<g>
</g>
<g>
</g>
<g>
</g>
<g>
</g>
<g>
</g>
<g>
</g>
<g>
</g>
</svg>
