<svg xmlns="http://www.w3.org/2000/svg" width="78.303" height="64" viewBox="0 0 78.303 64">
  <g id="cheese" opacity="0.8">
    <path id="Path_110" data-name="Path 110" d="M303.486,139.131h-9.431l-23.576-11.788h-2.358a2.56,2.56,0,0,0-2.358,0h0a10,10,0,0,0,2.358-2.358c.715-.9,1.3-.435,2.358,0Z" transform="translate(-225.464 -112.824)" fill="#fff08d"/>
    <path id="Path_111" data-name="Path 111" d="M30.129,61.143c-4.358,1.778-8.682,3.536-11.788,7.073-.132.127.118,2.217,0,2.358-3.349,3.908-5.932,6.769-7.073,11.788V84.72H8.91V82.362c1.141-5.019,3.724-7.88,7.073-11.788.118-.14-.132-2.23,0-2.358,3.256-3.7,7.2-5.29,11.788-7.073a2.6,2.6,0,0,1,2.358,0Z" transform="translate(-6.332 -58.404)" fill="#fff"/>
    <path id="Path_112" data-name="Path 112" d="M97.516,87.735H33.859V85.377C35,80.358,37.583,77.5,40.932,73.589c.118-.14-.132-2.23,0-2.358,3.106-3.537,7.43-5.3,11.788-7.073l7.073,2.358c1.026.455.15,1.245,0,2.358a6.113,6.113,0,0,0,0,2.358c.648,2.493,4.53,4.308,7.073,4.715a4.1,4.1,0,0,0,2.358,0c.31-.079-.285.145,0,0h0a2.561,2.561,0,0,1,2.358,0h2.358Z" transform="translate(-28.924 -61.419)" fill="#fff08d"/>
    <path id="Path_113" data-name="Path 113" d="M106.49,224.092c-.06,2.371,2.421,4.115,4.715,4.715.6.14,2.361,1.746,2.358,2.358v14.146c.073,2.073-2.642,4.638-4.715,4.715H89.986c-.607-.02.082.6,0,0-.39-2.322-2.362-4.648-4.715-4.715a10.778,10.778,0,0,0-2.358,0c-.454-.16.482,0,0,0a17.63,17.63,0,0,0-2.358,0c-1.793.569-2.058,2.858-2.358,4.715-.067.589-1.765-.032-2.358,0H45.191c-2.073-.077-2.431-2.642-2.358-4.715V214.662h70.729v2.358c0,.612-1.762,2.218-2.358,2.358-2.294.6-4.775,2.344-4.715,4.715Z" transform="translate(-35.54 -188.384)" fill="#fff08d"/>
    <path id="Path_114" data-name="Path 114" d="M72.556,224.092c-.06,2.371,2.421,4.115,4.715,4.715.6.14,0,1.746,0,2.358v14.146c.073,2.073-.285,4.638-2.358,4.715H58.41c-.6-.031-2.285.592-2.358,0-.324-2.286-.051-4.618-2.358-4.715a17.63,17.63,0,0,0-2.358,0c-.385-.1.4,0,0,0-2.357.059-4.333,2.389-4.715,4.715-.092.6-1.749-.023-2.358,0H11.258c-2.073-.077-2.431-2.642-2.358-4.715V214.662H77.272v2.358c0,.612.6,2.218,0,2.358-2.294.6-4.775,2.344-4.715,4.715Z" transform="translate(-6.322 -188.384)" fill="#fff"/>
    <path id="Path_115" data-name="Path 115" d="M97.485,224.092c-.083,2.336.111,4.072,2.358,4.715.584.149,2.372,1.755,2.358,2.358v14.146c.108,2.037-2.679,4.6-4.715,4.715h-16.5c-.6-.031-2.285.592-2.358,0-.285-1.751-.705-4.071-2.358-4.715-.454-.16.482,0,0,0a17.625,17.625,0,0,0-2.358,0c-1.793.569-2.058,2.858-2.358,4.715-.067.589-1.765-.032-2.358,0H38.544c-2.037-.114-4.824-2.678-4.715-4.715V214.662H102.2v2.358c.014.6-1.774,2.209-2.358,2.358-2.247.644-2.44,2.379-2.358,4.715Z" transform="translate(-28.893 -188.384)" fill="#fff08d"/>
    <g id="Group_8" data-name="Group 8" transform="translate(9.65 30.993)">
      <circle id="Ellipse_24" data-name="Ellipse 24" cx="3.536" cy="3.536" r="3.536" transform="translate(55.226 17.861)" fill="#129ecf"/>
      <circle id="Ellipse_25" data-name="Ellipse 25" cx="5.894" cy="5.894" r="5.894" transform="translate(15.146 7.073)" fill="#2b7571"/>
      <ellipse id="Ellipse_26" data-name="Ellipse 26" cx="5.715" cy="3.894" rx="5.715" ry="3.894" transform="translate(34.365 2)" fill="#2b7571"/>
      <circle id="Ellipse_27" data-name="Ellipse 27" cx="2.358" cy="2.358" r="2.358" transform="translate(0 4.715)" fill="#129ecf"/>
      <circle id="Ellipse_28" data-name="Ellipse 28" cx="2.358" cy="2.358" r="2.358" transform="translate(2.358 18.861)" fill="#129ecf"/>
    </g>
    <g id="Group_9" data-name="Group 9" transform="translate(19.081 31.005)" opacity="0.22">
      <ellipse id="Ellipse_29" data-name="Ellipse 29" cx="7.073" cy="5.894" rx="7.073" ry="5.894" transform="translate(0 7.073)" fill="rgba(235,245,255,0.56)"/>
      <circle id="Ellipse_30" data-name="Ellipse 30" cx="5.894" cy="5.894" r="5.894" transform="translate(21.219 0)" fill="rgba(235,245,255,0.56)"/>
    </g>
    <g id="Group_10" data-name="Group 10" transform="translate(0 0)">
      <path id="Path_116" data-name="Path 116" d="M73.076,245.82H54.215c-1.247,0-4.48-1.133-4.715-2.358-.382-1.8-.522-4.716-2.358-4.715s-4.334,2.92-4.715,4.715a2.641,2.641,0,0,1-2.358,2.358H4.7c-2.864,0-4.712-4.209-4.715-7.073v-4.715c0-.716,1.641,0,2.358,0s0-.716,0,0v4.715c0,1.432.926,4.714,2.358,4.715H40.069c.614-3.011,4-7.062,7.073-7.073s6.437,4.067,7.073,7.073H73.076c1.432,0,2.356-3.283,2.358-4.715V224.6c-3.007-.614-4.7-4-4.715-7.073s1.715-6.427,4.715-7.073V208.1H2.347v16.5c0,.716.716,0,0,0s-2.358.716-2.358,0V208.1c0-.344-.243-2.114,0-2.358s2.014,0,2.358,0H77.791c.344,0-.243-.243,0,0s0,2.013,0,2.358v2.358a2.633,2.633,0,0,1-2.358,2.358c-1.791.388-2.36,2.883-2.358,4.715s.565,4.332,2.358,4.715a2.643,2.643,0,0,1,2.358,2.358v14.146c0,2.864-1.851,7.07-4.715,7.073Z" transform="translate(0.23 -181.82)"/>
      <path id="Path_117" data-name="Path 117" d="M2.41,355.105c-.17,0-2.2.066-2.358,0s.126-2.243,0-2.358c-.371-.371-.206.483,0,0,.066-.157-.115.126,0,0,.062-.056-.068.048,0,0s-.083.028,0,0S2.329,350.4,2.41,350.39c.171-.038-.171-.038,0,0,.081.015-.074,2.32,0,2.358s-.072-.05,0,0-.062-.056,0,0c.117.124-.063-.159,0,0,.171.4.241-.361,0,0S2.844,355.109,2.41,355.105Z" transform="translate(0.168 -305.242)"/>
      <path id="Path_118" data-name="Path 118" d="M77.8,78.122H2.358c-.394,0-2.111.307-2.358,0s-.086.384,0,0V75.765A33.044,33.044,0,0,1,7.073,61.619c3.466-4.044,9.184-7.495,14.146-9.431,1.23-.486,1.147-.532,2.358,0L30.65,56.9c1.564.675,2.59.67,2.358,2.358a7.57,7.57,0,0,0,0,2.358,7.746,7.746,0,0,0,4.715,4.715c1.889.428,3.465-.878,4.715-2.358,1.086-1.331,3.131-3.022,4.715-2.358L77.8,75.765c.564.245.125,1.756,0,2.358s.615,0,0,0ZM2.358,75.765H70.729L44.8,63.977c-.537-.209.346,1.9,0,2.358-1.88,2.221-6.594,3.006-9.431,2.358s-3.988-4.256-4.715-7.073a5.149,5.149,0,0,1,0-2.358c.08-.541-1.858.222-2.358,0l-4.715-4.715a3.893,3.893,0,0,0-2.358,0c-4.567,1.781-8.6,5.709-11.788,9.431-3.019,3.532-5.912,7.289-7.073,11.788Z" transform="translate(0.219 -51.807)"/>
      <path id="Path_119" data-name="Path 119" d="M416.193,368.807c-2.865,0-7.073-1.85-7.073-4.715s4.208-4.715,7.073-4.715a4.715,4.715,0,0,1,0,9.431Zm0-7.073a2.358,2.358,0,1,0,2.358,2.358A2.209,2.209,0,0,0,416.193,361.734Z" transform="translate(-347.601 -311.88)"/>
      <path id="Path_120" data-name="Path 120" d="M154.072,299.031c-4.3,0-9.431-5.132-9.431-9.431s5.132-7.073,9.431-7.073,7.073,2.775,7.073,7.073-2.777,9.426-7.073,9.431Zm0-14.146a4.418,4.418,0,0,0-4.715,4.715c0,2.865,1.85,7.073,4.715,7.073s4.715-4.207,4.715-7.073a4.422,4.422,0,0,0-4.715-4.715Z" transform="translate(-123.203 -246.81)"/>
      <path id="Path_121" data-name="Path 121" d="M288.629,260.566c-2.623,0-6.069.066-7.073-2.358s.5-5.218,2.358-7.073,4.649-3.361,7.073-2.358a8.811,8.811,0,0,1,4.715,7.073C295.7,259.431,292.209,260.562,288.629,260.566Zm0-9.431c-2.149,0-4.715,2.566-4.715,4.715s2.566,2.358,4.715,2.358,4.715-.209,4.715-2.358-2.567-4.713-4.715-4.715Z" transform="translate(-238.898 -217.769)"/>
      <path id="Path_122" data-name="Path 122" d="M55.541,272.634c-2.149,0-4.715-.209-4.715-2.358s2.566-4.715,4.715-4.715,4.715,2.566,4.715,4.715S57.689,272.632,55.541,272.634Zm0-4.715a3.848,3.848,0,0,0-2.358,2.358c0,.716,1.641,0,2.358,0s2.358.716,2.358,0a3.852,3.852,0,0,0-2.358-2.358Z" transform="translate(-43.533 -232.194)"/>
      <path id="Path_123" data-name="Path 123" d="M72.508,375.432c-2.149,0-4.715-2.566-4.715-4.715s2.566-2.358,4.715-2.358,4.715.209,4.715,2.358S74.656,375.43,72.508,375.432Zm0-4.715c-.716,0,0-.716,0,0s-.716,2.358,0,2.358a3.848,3.848,0,0,0,2.358-2.358C74.865,370,73.224,370.718,72.508,370.717Z" transform="translate(-58.142 -318.505)"/>
      <path id="Path_124" data-name="Path 124" d="M290.426,371.025c-.17,0,.156.067,0,0-.326-.119.118-2.032,0-2.358-.138-.314-.138.314,0,0,.066-.157-.115.126,0,0a2.11,2.11,0,0,1,2.358,0c.115.126-.066-.157,0,0s0-.17,0,0c0,.344.24,2.111,0,2.358-.126.114.157-.066,0,0s-2.188,0-2.358,0Z" transform="translate(-245.41 -318.806)"/>
      <path id="Path_125" data-name="Path 125" d="M206.969,251.09c-.434,0-2.117.361-2.358,0a4.582,4.582,0,0,1,0-2.358c.066-.157-.115.126,0,0s2.2.06,2.358,0c.483-.2-.373-.369,0,0,.117.124-.063-.159,0,0a4.578,4.578,0,0,1,0,2.358c-.241.361.434,0,0,0Z" transform="translate(-173.742 -217.72)"/>
      <path id="Path_126" data-name="Path 126" d="M410.208,293.867c-.434,0,.241-2,0-2.358s-.17.4,0,0c.063-.159-.118.124,0,0,.3-.315-.428-.087,0,0s2.2-.408,2.358,0-2.117-.361-2.358,0,.434,2.362,0,2.358Z" transform="translate(-346.332 -253.428)"/>
    </g>
  </g>
</svg>
