<svg id="Layer_1" enable-background="new 0 0 512.009 512.009" height="512" viewBox="0 0 512.009 512.009" width="512" xmlns="http://www.w3.org/2000/svg"><g><g clip-rule="evenodd" fill-rule="evenodd"><circle cx="256.004" cy="208.15" fill="#fff" r="30"/><path d="m256.004 121.226c-43.491 0-78.747 33.683-78.747 90.789 0 39.208 14.076 80.21 37.889 101.719 11.279-20.147 25.342-35.583 40.858-35.583s29.579 15.435 40.858 35.583c23.813-21.51 37.889-62.511 37.889-101.719 0-57.106-35.256-90.789-78.747-90.789zm30 86.924c0 16.569-13.431 30-30 30s-30-13.431-30-30 13.431-30 30-30 30 13.431 30 30z" fill="#ff764e"/><path d="m334.751 212.015c0 39.208-14.076 80.21-37.889 101.719 9.76 17.434 17.434 38.397 22.158 55.939 39.337-33.571 62.672-99.943 62.672-163.359 0-90.63-56.272-144.088-125.687-144.088v59c43.49 0 78.746 33.683 78.746 90.789z" fill="#ff9171"/><path d="m381.692 206.314c0 63.415-23.334 129.788-62.672 163.359.132.49.262.978.389 1.462 12.274 46.706-10.422 72.352-22.449 93.592-12.684 22.4.777 47.655 25.665 32.845 70.5-41.953 113.38-157.548 113.38-267.343 0-138.523-80.589-220.229-180-220.229v52.226c69.415 0 125.687 53.457 125.687 144.088z" fill="#ff764e"/><path d="m130.317 206.314c0-90.63 56.272-144.088 125.687-144.088v-52.226c-99.411 0-180 81.706-180 220.229 0 109.795 42.88 225.39 113.38 267.343 24.888 14.81 38.349-10.445 25.665-32.845-12.027-21.24-34.723-46.886-22.449-93.592.127-.484.257-.972.389-1.462-39.338-33.572-62.672-99.944-62.672-163.359z" fill="#ff764e"/><path d="m256.004 62.226c-69.415 0-125.687 53.458-125.687 144.088 0 63.416 23.334 129.788 62.672 163.359 4.724-17.542 12.398-38.504 22.158-55.939-23.813-21.51-37.889-62.511-37.889-101.719 0-57.106 35.256-90.789 78.747-90.789v-59z" fill="#ff9171"/></g><g><path d="m390.854 61.635c-34.303-39.746-82.194-61.635-134.85-61.635s-100.546 21.889-134.85 61.635c-36.08 41.805-55.15 100.104-55.15 168.595 0 56.062 11.007 113.91 30.994 162.891 21.546 52.801 51.724 91.892 87.272 113.046 13.834 8.231 27.621 7.74 36.878-1.32 10.649-10.422 11.72-28.945 2.603-45.046-1.803-3.185-3.761-6.346-5.834-9.693-11.759-18.986-25.086-40.505-15.645-76.43 11.048-42.041 34.167-85.525 53.732-85.525s42.685 43.484 53.732 85.525c9.441 35.924-3.886 57.443-15.645 76.429-2.073 3.348-4.031 6.51-5.834 9.694-9.117 16.101-8.047 34.624 2.603 45.046 4.871 4.768 10.996 7.163 17.723 7.163 6.056-.001 12.601-1.942 19.155-5.843 35.548-21.154 65.727-60.245 87.273-113.046 19.987-48.98 30.994-106.829 30.994-162.891-.001-68.492-19.071-126.791-55.151-168.595zm-134.849 126.515c11.028 0 20 8.972 20 19.999 0 11.028-8.972 20-20 20s-20-8.972-20-20c0-11.027 8.972-19.999 20-19.999zm-67.792 162.752c-29.046-32.88-47.896-88.712-47.896-144.589 0-20.912 3.143-40.261 9.341-57.509 1.868-5.197-.831-10.925-6.029-12.793-5.197-1.866-10.925.833-12.792 6.029-6.98 19.424-10.52 41.048-10.52 64.272 0 66.673 24.013 131.406 61.521 166.777-9.356 41.623 7.009 68.063 19.076 87.548 1.966 3.175 3.824 6.174 5.434 9.018 4.947 8.736 4.298 17.485.812 20.896-3.418 3.348-9.994.016-12.662-1.573-31.781-18.912-59.093-54.673-78.982-103.415-19.03-46.638-29.511-101.803-29.511-155.334 0-119.614 65.283-204.36 160-209.929v32.282c-19.46 1.345-37.681 6.635-54.278 15.803-4.834 2.67-6.589 8.754-3.918 13.588 2.669 4.833 8.753 6.588 13.588 3.918 13.619-7.522 28.587-11.958 44.608-13.254v39.151c-20.616 2.264-39.188 11.522-53.057 26.664-16.807 18.351-25.69 43.788-25.69 73.563 0 40.136 13.82 79.967 35.576 103.566-5.417 10.647-10.424 22.759-14.621 35.321zm67.791-82.751c-15.027 0-29.294 9.816-42.492 29.19-16.172-20.414-26.255-52.56-26.255-85.327 0-44.288 23.216-75.237 58.747-80.1v37.501c-17.233 4.452-30 20.129-30 38.733 0 22.056 17.944 40 40 40s40-17.944 40-40c0-18.604-12.767-34.282-30-38.733v-37.501c35.531 4.863 58.747 35.812 58.747 80.1 0 32.767-10.083 64.913-26.255 85.327-13.198-19.374-27.464-29.19-42.492-29.19zm53.171 47.43c21.756-23.599 35.576-63.43 35.576-103.566 0-29.775-8.883-55.213-25.69-73.563-13.87-15.143-32.441-24.4-53.057-26.664v-39.173c63.637 4.958 105.688 57.425 105.688 133.699 0 55.877-18.85 111.709-47.896 144.589-4.197-12.563-9.205-24.675-14.621-35.322zm87.318 69.982c-19.89 48.742-47.202 84.503-78.983 103.415-2.667 1.588-9.242 4.922-12.661 1.573-3.486-3.411-4.135-12.16.812-20.896 1.61-2.844 3.468-5.844 5.435-9.02 12.066-19.482 28.431-45.923 19.076-87.546 37.507-35.37 61.521-100.104 61.521-166.777 0-45.773-13.644-84.78-39.458-112.805-22.325-24.237-52.652-38.556-86.23-40.927v-32.28c94.717 5.57 160 90.315 160 209.929-.001 53.532-10.482 108.697-29.512 155.334z"/><path d="m172.115 106.086c0-5.522-4.477-10-10-10h-.007c-5.523 0-9.997 4.478-9.997 10s4.481 10 10.004 10 10-4.478 10-10z"/></g></g></svg>