<svg id="Layer_2" height="512" viewBox="0 0 128 128" width="512" xmlns="http://www.w3.org/2000/svg" data-name="Layer 2"><path d="m46.868 42.005h-6.068a44.109 44.109 0 0 0 -29.673 11.469l-7.9 7.178a4.526 4.526 0 0 0 -1.477 3.348 4.526 4.526 0 0 0 1.481 3.348l7.9 7.178a44.109 44.109 0 0 0 29.669 11.474h6.072a44.1 44.1 0 0 0 13.886-2.243l45.48-15.085v-9.339l-45.484-15.085a44.1 44.1 0 0 0 -13.886-2.243z" fill="#358bd8"/><g fill="#475c70"><path d="m126.25 39.248a10.377 10.377 0 0 0 -8.36 4.23l-11.656 15.855v4.667 4.667l11.656 15.855a10.377 10.377 0 0 0 8.36 4.23 29.107 29.107 0 0 0 -5.518-17.052l-5.565-7.7 5.565-7.7a29.107 29.107 0 0 0 5.518-17.052z"/><path d="m46.868 86h-6.068q-2.04 0-4.058-.188a33.1 33.1 0 0 0 14.758 18.855l-3.859-18.688c-.258.005-.515.021-.773.021z"/><path d="m74.385 79.231a33.1 33.1 0 0 0 15.29 8.638l-6.268-11.63z"/><path d="m46.868 42.005h-6.068q-2.04 0-4.058.188a33.1 33.1 0 0 1 14.758-18.86l-3.859 18.688c-.258-.005-.515-.016-.773-.016z"/><path d="m74.385 48.769a33.1 33.1 0 0 1 15.29-8.638l-6.268 11.63z"/><path d="m66.465 59.5h-29.765a35.464 35.464 0 0 1 -.049 9.41l19.8 3.593z"/></g><path d="m117.326 64 4.824-6.675a30.664 30.664 0 0 0 5.85-18.077 1.749 1.749 0 0 0 -1.75-1.75 12.171 12.171 0 0 0 -9.77 4.943l-10.9 14.83-19.643-6.514 5.279-9.8a1.75 1.75 0 0 0 -1.967-2.527 34.844 34.844 0 0 0 -15.3 8.348l-12.644-4.191a45.8 45.8 0 0 0 -11.533-2.232l3.442-16.668a1.75 1.75 0 0 0 -2.609-1.858 34.759 34.759 0 0 0 -15.179 18.752 45.741 45.741 0 0 0 -25.476 11.599l-7.895 7.177a6.273 6.273 0 0 0 0 9.286l7.9 7.177a1.75 1.75 0 1 0 2.345-2.59l-7.9-7.177a2.775 2.775 0 0 1 0-4.106l7.9-7.177a42.441 42.441 0 0 1 16.173-9.19 49.832 49.832 0 0 1 14.668-1.825c1.5 0 3 .015 4.5.015a42.283 42.283 0 0 1 12.559 2.139l13.627 4.52 9.022 2.992 21.635 7.179v6.8l-21.624 7.176-9.022 2.992-13.638 4.523a45.75 45.75 0 0 1 -14.516 2.154 71.691 71.691 0 0 1 -11.987-.6 42.087 42.087 0 0 1 -10.515-3.232 1.751 1.751 0 1 0 -1.456 3.184 45.591 45.591 0 0 0 13.7 3.832 34.759 34.759 0 0 0 15.177 18.746 1.75 1.75 0 0 0 2.609-1.858l-3.44-16.672a45.8 45.8 0 0 0 11.533-2.232l12.649-4.195a34.844 34.844 0 0 0 15.3 8.348 1.726 1.726 0 0 0 .426.053 1.75 1.75 0 0 0 1.541-2.58l-5.279-9.8 19.642-6.514 10.9 14.829a12.172 12.172 0 0 0 9.77 4.944 1.749 1.749 0 0 0 1.75-1.75 30.664 30.664 0 0 0 -5.85-18.077zm-76.526-23.745q-.768 0-1.541.026a31.24 31.24 0 0 1 9.651-13.039l-2.691 13.013zm45.272 2.881-3.5 6.5-4.783-1.586a31.4 31.4 0 0 1 8.279-4.914zm-46.817 44.583q.773.026 1.541.026h5.423l2.687 13.013a31.24 31.24 0 0 1 -9.651-13.039zm46.813-2.855a31.4 31.4 0 0 1 -8.287-4.916l4.783-1.586zm33.232-1.379-11.316-15.392v-8.187l11.316-15.392a8.667 8.667 0 0 1 5.131-3.321 27.165 27.165 0 0 1 -5.118 14.081l-5.565 7.7a1.75 1.75 0 0 0 0 2.05l5.565 7.7a27.165 27.165 0 0 1 5.118 14.081 8.669 8.669 0 0 1 -5.131-3.32z" fill="#001d33"/><path d="m54.28 61.25a1.75 1.75 0 0 0 0-3.5h-2.31a1.75 1.75 0 0 0 0 3.5z" fill="#001d33"/><path d="m45.375 59.5a1.749 1.749 0 0 0 -1.75-1.75h-5.425a36.68 36.68 0 0 0 -2.18-7.727 1.751 1.751 0 0 0 -3.243 1.321 33.925 33.925 0 0 1 0 25.312 1.751 1.751 0 0 0 3.243 1.321 36.653 36.653 0 0 0 2.062-7.03l18.063 3.278a1.75 1.75 0 0 0 1.7-.655l10.008-13a1.75 1.75 0 0 0 -1.387-2.817h-3.84a1.75 1.75 0 0 0 0 3.5h.284l-7.188 9.341-17.14-3.114a37.231 37.231 0 0 0 .058-6.23h4.985a1.749 1.749 0 0 0 1.75-1.75z" fill="#001d33"/><path d="m22.417 60.5a1.749 1.749 0 0 0 -1.75-1.75h-2.5a1.75 1.75 0 0 0 0 3.5h2.5a1.749 1.749 0 0 0 1.75-1.75z" fill="#001d33"/></svg>