<svg id="Filled" height="512" viewBox="0 0 512 512" width="512" xmlns="http://www.w3.org/2000/svg"><path d="m24 468c38.666 0 38.666 20 77.331 20s38.669-20 77.332-20 38.665 20 77.331 20 38.666-20 77.333-20 38.673 20 77.336 20 38.669-20 77.337-20" fill="#fff"/><path d="m256 424v-32s-16-32-64-32c0 0 8 64 64 64z" fill="#e09f2c"/><path d="m256 376v-32s-16-32-64-32c0 0 8 64 64 64z" fill="#f7b030"/><path d="m256 328v-32s-16-32-64-32c0 0 8 64 64 64z" fill="#e09f2c"/><path d="m256 280v-32s-16-32-64-32c0 0 8 64 64 64z" fill="#f7b030"/><path d="m256 232v-32s-16-32-64-32c0 0 8 64 64 64z" fill="#e09f2c"/><path d="m256 184v-32s-16-32-64-32c0 0 8 64 64 64z" fill="#f7b030"/><path d="m256 136v-32s-16-32-64-32c0 0 8 64 64 64z" fill="#e09f2c"/><path d="m256 88v-32s-16-32-64-32c0 0 8 64 64 64z" fill="#f7b030"/><path d="m256 424v-32s16-32 64-32c0 0-8 64-64 64z" fill="#f7b030"/><path d="m256 376v-32s16-32 64-32c0 0-8 64-64 64z" fill="#e09f2c"/><path d="m256 328v-32s16-32 64-32c0 0-8 64-64 64z" fill="#f7b030"/><path d="m256 280v-32s16-32 64-32c0 0-8 64-64 64z" fill="#e09f2c"/><path d="m256 232v-32s16-32 64-32c0 0-8 64-64 64z" fill="#f7b030"/><path d="m256 184v-32s16-32 64-32c0 0-8 64-64 64z" fill="#e09f2c"/><path d="m256 136v-32s16-32 64-32c0 0-8 64-64 64z" fill="#f7b030"/><path d="m256 88v-32s16-32 64-32c0 0-8 64-64 64z" fill="#e09f2c"/><path d="m424 440v-32s-16-32-64-32c0 0 8 64 64 64z" fill="#f7b030"/><path d="m424 392v-32s-16-32-64-32c0 0 8 64 64 64z" fill="#e09f2c"/><path d="m424 344v-32s-16-32-64-32c0 0 8 64 64 64z" fill="#f7b030"/><path d="m424 296v-32s-16-32-64-32c0 0 8 64 64 64z" fill="#e09f2c"/><path d="m424 248v-32s-16-32-64-32c0 0 8 64 64 64z" fill="#f7b030"/><path d="m424 200v-32s-16-32-64-32c0 0 8 64 64 64z" fill="#e09f2c"/><path d="m424 152v-32s-16-32-64-32c0 0 8 64 64 64z" fill="#f7b030"/><path d="m424 440v-32s16-32 64-32c0 0-8 64-64 64z" fill="#e09f2c"/><path d="m424 392v-32s16-32 64-32c0 0-8 64-64 64z" fill="#f7b030"/><path d="m424 344v-32s16-32 64-32c0 0-8 64-64 64z" fill="#e09f2c"/><path d="m424 296v-32s16-32 64-32c0 0-8 64-64 64z" fill="#f7b030"/><path d="m424 248v-32s16-32 64-32c0 0-8 64-64 64z" fill="#e09f2c"/><path d="m424 200v-32s16-32 64-32c0 0-8 64-64 64z" fill="#f7b030"/><path d="m424 152v-32s16-32 64-32c0 0-8 64-64 64z" fill="#e09f2c"/><path d="m88 440v-32s16-32 64-32c0 0-8 64-64 64z" fill="#e09f2c"/><path d="m88 392v-32s16-32 64-32c0 0-8 64-64 64z" fill="#f7b030"/><path d="m88 344v-32s16-32 64-32c0 0-8 64-64 64z" fill="#e09f2c"/><path d="m88 296v-32s16-32 64-32c0 0-8 64-64 64z" fill="#f7b030"/><path d="m88 248v-32s16-32 64-32c0 0-8 64-64 64z" fill="#e09f2c"/><path d="m88 200v-32s16-32 64-32c0 0-8 64-64 64z" fill="#f7b030"/><path d="m88 152v-32s16-32 64-32c0 0-8 64-64 64z" fill="#e09f2c"/><path d="m88 440v-32s-16-32-64-32c0 0 8 64 64 64z" fill="#f7b030"/><path d="m88 392v-32s-16-32-64-32c0 0 8 64 64 64z" fill="#e09f2c"/><path d="m88 344v-32s-16-32-64-32c0 0 8 64 64 64z" fill="#f7b030"/><path d="m88 296v-32s-16-32-64-32c0 0 8 64 64 64z" fill="#e09f2c"/><path d="m88 248v-32s-16-32-64-32c0 0 8 64 64 64z" fill="#f7b030"/><path d="m88 200v-32s-16-32-64-32c0 0 8 64 64 64z" fill="#e09f2c"/><path d="m88 152v-32s-16-32-64-32c0 0 8 64 64 64z" fill="#f7b030"/><path d="m66.341 470.894c-9.872-5.106-21.062-10.894-42.341-10.894a8 8 0 0 0 0 16c17.386 0 25.544 4.22 34.989 9.105 9.873 5.107 21.063 10.895 42.342 10.895s32.469-5.788 42.342-10.895c9.445-4.885 17.6-9.105 34.99-9.105s25.544 4.22 34.989 9.105c9.873 5.107 21.063 10.895 42.342 10.895s32.469-5.788 42.342-10.894c9.446-4.886 17.6-9.106 34.991-9.106s25.546 4.22 34.993 9.106c9.872 5.106 21.063 10.894 42.343 10.894s32.472-5.788 42.344-10.895c9.447-4.885 17.605-9.105 34.993-9.105a8 8 0 0 0 0-16c-21.28 0-32.471 5.788-42.343 10.894a89.568 89.568 0 0 1 -13.657 6.106v-29.42c22.228-2.332 40.091-14.535 51.973-35.658a105.487 105.487 0 0 0 11.965-34.93 8 8 0 0 0 -7.938-8.992c-2.275 0-4.461.088-6.608.214a104.367 104.367 0 0 0 14.546-39.222 8 8 0 0 0 -7.938-8.992c-2.275 0-4.461.088-6.608.214a104.367 104.367 0 0 0 14.546-39.222 8 8 0 0 0 -7.938-8.992c-2.275 0-4.461.088-6.608.214a104.367 104.367 0 0 0 14.546-39.222 8 8 0 0 0 -7.938-8.992c-2.275 0-4.461.088-6.608.214a104.367 104.367 0 0 0 14.546-39.222 8 8 0 0 0 -7.938-8.992c-2.275 0-4.461.088-6.608.214a104.367 104.367 0 0 0 14.546-39.222 8 8 0 0 0 -7.938-8.992c-2.275 0-4.461.088-6.608.214a104.367 104.367 0 0 0 14.546-39.222 8 8 0 0 0 -7.938-8.992c-34.9 0-54.551 15.526-64 26.318-9.449-10.792-29.1-26.318-64-26.318a8 8 0 0 0 -7.938 8.992 104.367 104.367 0 0 0 14.546 39.222c-2.147-.126-4.333-.214-6.608-.214a8 8 0 0 0 -7.938 8.992 104.367 104.367 0 0 0 14.546 39.222c-2.147-.126-4.333-.214-6.608-.214a8 8 0 0 0 -7.938 8.992 104.367 104.367 0 0 0 14.546 39.222c-2.147-.126-4.333-.214-6.608-.214a8 8 0 0 0 -7.938 8.992 104.367 104.367 0 0 0 14.546 39.222c-2.147-.126-4.333-.214-6.608-.214a8 8 0 0 0 -7.938 8.992 104.367 104.367 0 0 0 14.546 39.222c-2.147-.126-4.333-.214-6.608-.214a8 8 0 0 0 -7.938 8.992 104.367 104.367 0 0 0 14.546 39.222c-2.147-.126-4.333-.214-6.608-.214a8 8 0 0 0 -7.938 8.992 105.487 105.487 0 0 0 11.965 34.93c11.882 21.123 29.745 33.326 51.973 35.658v32.266c-1.685.095-3.447.154-5.337.154-17.388 0-25.546-4.22-34.993-9.106-9.87-5.106-21.063-10.894-42.343-10.894s-32.47 5.788-42.343 10.895c-7.86 4.065-14.848 7.66-26.984 8.756v-48.071c22.228-2.332 40.091-14.535 51.973-35.658a105.487 105.487 0 0 0 11.965-34.93 8 8 0 0 0 -7.938-8.992c-2.275 0-4.461.088-6.608.214a104.367 104.367 0 0 0 14.546-39.222 8 8 0 0 0 -7.938-8.992c-2.275 0-4.461.088-6.608.214a104.367 104.367 0 0 0 14.546-39.222 8 8 0 0 0 -7.938-8.992c-2.275 0-4.461.088-6.608.214a104.367 104.367 0 0 0 14.546-39.222 8 8 0 0 0 -7.938-8.992c-2.275 0-4.461.088-6.608.214a104.367 104.367 0 0 0 14.546-39.222 8 8 0 0 0 -7.938-8.992c-2.275 0-4.461.088-6.608.214a104.367 104.367 0 0 0 14.546-39.222 8 8 0 0 0 -7.938-8.992c-2.275 0-4.461.088-6.608.214a104.367 104.367 0 0 0 14.546-39.222 8 8 0 0 0 -7.938-8.992c-2.275 0-4.461.088-6.608.214a104.367 104.367 0 0 0 14.546-39.222 8 8 0 0 0 -7.938-8.992c-34.9 0-54.551 15.526-64 26.318-9.449-10.792-29.1-26.318-64-26.318a8 8 0 0 0 -7.938 8.992 104.367 104.367 0 0 0 14.546 39.222c-2.147-.126-4.333-.214-6.608-.214a8 8 0 0 0 -7.938 8.992 104.367 104.367 0 0 0 14.546 39.222c-2.147-.126-4.333-.214-6.608-.214a8 8 0 0 0 -7.938 8.992 104.367 104.367 0 0 0 14.546 39.222c-2.147-.126-4.333-.214-6.608-.214a8 8 0 0 0 -7.938 8.992 104.367 104.367 0 0 0 14.546 39.222c-2.147-.126-4.333-.214-6.608-.214a8 8 0 0 0 -7.938 8.992 104.367 104.367 0 0 0 14.546 39.222c-2.147-.126-4.333-.214-6.608-.214a8 8 0 0 0 -7.938 8.992 104.367 104.367 0 0 0 14.546 39.222c-2.147-.126-4.333-.214-6.608-.214a8 8 0 0 0 -7.938 8.992 104.367 104.367 0 0 0 14.546 39.222c-2.147-.126-4.333-.214-6.608-.214a8 8 0 0 0 -7.938 8.992 105.487 105.487 0 0 0 11.965 34.93c11.882 21.123 29.745 33.326 51.973 35.658v48.072c-12.144-1.094-19.134-4.691-27-8.758-9.868-5.106-21.058-10.894-42.337-10.894s-32.469 5.788-42.342 10.895c-9.445 4.885-17.6 9.105-34.99 9.105-1.887 0-3.648-.059-5.331-.153v-32.267c22.228-2.332 40.091-14.535 51.973-35.658a105.487 105.487 0 0 0 11.965-34.93 8 8 0 0 0 -7.938-8.992c-2.275 0-4.461.088-6.608.214a104.367 104.367 0 0 0 14.546-39.222 8 8 0 0 0 -7.938-8.992c-2.275 0-4.461.088-6.608.214a104.367 104.367 0 0 0 14.546-39.222 8 8 0 0 0 -7.938-8.992c-2.275 0-4.461.088-6.608.214a104.367 104.367 0 0 0 14.546-39.222 8 8 0 0 0 -7.938-8.992c-2.275 0-4.461.088-6.608.214a104.367 104.367 0 0 0 14.546-39.222 8 8 0 0 0 -7.938-8.992c-2.275 0-4.461.088-6.608.214a104.367 104.367 0 0 0 14.546-39.222 8 8 0 0 0 -7.938-8.992c-2.275 0-4.461.088-6.608.214a104.367 104.367 0 0 0 14.546-39.222 8 8 0 0 0 -7.938-8.992c-34.9 0-54.551 15.526-64 26.318-9.449-10.792-29.1-26.318-64-26.318a8 8 0 0 0 -7.938 8.992 104.367 104.367 0 0 0 14.546 39.222c-2.147-.126-4.333-.214-6.608-.214a8 8 0 0 0 -7.938 8.992 104.367 104.367 0 0 0 14.546 39.222c-2.147-.126-4.333-.214-6.608-.214a8 8 0 0 0 -7.938 8.992 104.367 104.367 0 0 0 14.546 39.222c-2.147-.126-4.333-.214-6.608-.214a8 8 0 0 0 -7.938 8.992 104.367 104.367 0 0 0 14.546 39.222c-2.147-.126-4.333-.214-6.608-.214a8 8 0 0 0 -7.938 8.992 104.367 104.367 0 0 0 14.546 39.222c-2.147-.126-4.333-.214-6.608-.214a8 8 0 0 0 -7.938 8.992 104.367 104.367 0 0 0 14.546 39.222c-2.147-.126-4.333-.214-6.608-.214a8 8 0 0 0 -7.938 8.992 105.487 105.487 0 0 0 11.965 34.93c11.882 21.123 29.745 33.326 51.973 35.658v29.42a89.554 89.554 0 0 1 -13.659-6.106zm365.659-348.75c3.3-5.226 16.255-22.38 45.993-25.615-2.614 9.435-8.206 23.958-19.454 34.464-.766.716-1.556 1.4-2.356 2.055a76.844 76.844 0 0 0 -24.183 13.495zm0 48c3.3-5.226 16.255-22.38 45.993-25.615-2.614 9.435-8.206 23.958-19.454 34.464-.766.716-1.556 1.4-2.356 2.055a76.844 76.844 0 0 0 -24.183 13.495zm0 48c3.3-5.226 16.255-22.38 45.993-25.615-2.614 9.435-8.206 23.958-19.454 34.464-.766.716-1.556 1.4-2.356 2.055a76.844 76.844 0 0 0 -24.183 13.495zm0 48c3.3-5.226 16.255-22.38 45.993-25.615-2.614 9.435-8.206 23.958-19.454 34.464-.766.716-1.556 1.4-2.356 2.055a76.844 76.844 0 0 0 -24.183 13.495zm0 48c3.3-5.226 16.255-22.38 45.993-25.615-2.614 9.435-8.206 23.958-19.454 34.464-.766.716-1.556 1.4-2.356 2.055a76.844 76.844 0 0 0 -24.183 13.495zm0 48c3.3-5.226 16.255-22.38 45.993-25.615-2.614 9.435-8.206 23.958-19.454 34.464-.766.716-1.556 1.4-2.356 2.055a76.844 76.844 0 0 0 -24.183 13.495zm0 48c3.3-5.225 16.25-22.374 45.974-25.614a88.7 88.7 0 0 1 -8.171 19.943c-8.983 15.744-21.681 24.78-37.8 26.979zm-16-288v24.4a76.844 76.844 0 0 0 -24.183-13.5c-.8-.659-1.59-1.339-2.356-2.055-11.18-10.443-16.791-25-19.428-34.462 29.719 3.247 42.672 20.394 45.967 25.618zm0 48v24.4a76.844 76.844 0 0 0 -24.183-13.5c-.8-.659-1.59-1.339-2.356-2.055-11.18-10.443-16.791-25-19.428-34.462 29.719 3.247 42.672 20.394 45.967 25.618zm0 48v24.4a76.844 76.844 0 0 0 -24.183-13.5c-.8-.659-1.59-1.339-2.356-2.055-11.18-10.443-16.791-25-19.428-34.462 29.719 3.247 42.672 20.394 45.967 25.618zm0 48v24.4a76.844 76.844 0 0 0 -24.183-13.5c-.8-.659-1.59-1.339-2.356-2.055-11.18-10.443-16.791-25-19.428-34.462 29.719 3.247 42.672 20.394 45.967 25.618zm0 48v24.4a76.844 76.844 0 0 0 -24.183-13.5c-.8-.659-1.59-1.339-2.356-2.055-11.18-10.443-16.791-25-19.428-34.462 29.719 3.247 42.672 20.394 45.967 25.618zm0 48v24.4a76.844 76.844 0 0 0 -24.183-13.5c-.8-.659-1.59-1.339-2.356-2.055-11.18-10.443-16.791-25-19.428-34.462 29.719 3.247 42.672 20.394 45.967 25.618zm-37.8 42.329a88.813 88.813 0 0 1 -8.172-19.943c29.725 3.241 42.68 20.389 45.975 25.614v21.308c-16.125-2.198-28.823-11.234-37.803-26.978zm-114.2-346.329c3.3-5.226 16.255-22.38 45.993-25.615-2.614 9.435-8.206 23.958-19.454 34.464-.766.716-1.556 1.4-2.356 2.055a76.844 76.844 0 0 0 -24.183 13.495zm0 48c3.3-5.226 16.255-22.38 45.993-25.615-2.614 9.435-8.206 23.958-19.454 34.464-.766.716-1.556 1.4-2.356 2.055a76.844 76.844 0 0 0 -24.183 13.495zm0 48c3.3-5.226 16.255-22.38 45.993-25.615-2.614 9.435-8.206 23.958-19.454 34.464-.766.716-1.556 1.4-2.356 2.055a76.844 76.844 0 0 0 -24.183 13.495zm0 48c3.3-5.226 16.255-22.38 45.993-25.615-2.614 9.435-8.206 23.958-19.454 34.464-.766.716-1.556 1.4-2.356 2.055a76.844 76.844 0 0 0 -24.183 13.495zm0 48c3.3-5.226 16.255-22.38 45.993-25.615-2.614 9.435-8.206 23.958-19.454 34.464-.766.716-1.556 1.4-2.356 2.055a76.844 76.844 0 0 0 -24.183 13.495zm0 48c3.3-5.226 16.255-22.38 45.993-25.615-2.614 9.435-8.206 23.958-19.454 34.464-.766.716-1.556 1.4-2.356 2.055a76.844 76.844 0 0 0 -24.183 13.495zm0 48c3.3-5.226 16.255-22.38 45.993-25.615-2.614 9.435-8.206 23.958-19.454 34.464-.766.716-1.556 1.4-2.356 2.055a76.844 76.844 0 0 0 -24.183 13.495zm0 48c3.3-5.225 16.25-22.374 45.974-25.614a88.7 88.7 0 0 1 -8.171 19.943c-8.983 15.744-21.681 24.78-37.8 26.979zm-16-336v24.4a76.844 76.844 0 0 0 -24.183-13.5c-.8-.659-1.59-1.339-2.356-2.055-11.18-10.443-16.791-25-19.428-34.462 29.719 3.247 42.672 20.394 45.967 25.618zm0 48v24.4a76.844 76.844 0 0 0 -24.183-13.5c-.8-.659-1.59-1.339-2.356-2.055-11.18-10.443-16.791-25-19.428-34.462 29.719 3.247 42.672 20.394 45.967 25.618zm0 48v24.4a76.844 76.844 0 0 0 -24.183-13.5c-.8-.659-1.59-1.339-2.356-2.055-11.18-10.443-16.791-25-19.428-34.462 29.719 3.247 42.672 20.394 45.967 25.618zm0 48v24.4a76.844 76.844 0 0 0 -24.183-13.5c-.8-.659-1.59-1.339-2.356-2.055-11.18-10.443-16.791-25-19.428-34.462 29.719 3.247 42.672 20.394 45.967 25.618zm0 48v24.4a76.844 76.844 0 0 0 -24.183-13.5c-.8-.659-1.59-1.339-2.356-2.055-11.18-10.443-16.791-25-19.428-34.462 29.719 3.247 42.672 20.394 45.967 25.618zm0 48v24.4a76.844 76.844 0 0 0 -24.183-13.5c-.8-.659-1.59-1.339-2.356-2.055-11.18-10.443-16.791-25-19.428-34.462 29.719 3.247 42.672 20.394 45.967 25.618zm0 48v24.4a76.844 76.844 0 0 0 -24.183-13.5c-.8-.659-1.59-1.339-2.356-2.055-11.18-10.443-16.791-25-19.428-34.462 29.719 3.247 42.672 20.394 45.967 25.618zm-37.8 42.329a88.813 88.813 0 0 1 -8.172-19.943c29.725 3.241 42.68 20.389 45.975 25.614v21.308c-16.125-2.198-28.823-11.234-37.803-26.978zm-114.2-266.329c3.3-5.226 16.255-22.38 45.993-25.615-2.614 9.435-8.206 23.958-19.454 34.464-.766.716-1.556 1.4-2.356 2.055a76.844 76.844 0 0 0 -24.183 13.495zm0 48c3.3-5.226 16.255-22.38 45.993-25.615-2.614 9.435-8.206 23.958-19.454 34.464-.766.716-1.556 1.4-2.356 2.055a76.844 76.844 0 0 0 -24.183 13.495zm0 48c3.3-5.226 16.255-22.38 45.993-25.615-2.614 9.435-8.206 23.958-19.454 34.464-.766.716-1.556 1.4-2.356 2.055a76.844 76.844 0 0 0 -24.183 13.495zm0 48c3.3-5.226 16.255-22.38 45.993-25.615-2.614 9.435-8.206 23.958-19.454 34.464-.766.716-1.556 1.4-2.356 2.055a76.844 76.844 0 0 0 -24.183 13.495zm0 48c3.3-5.226 16.255-22.38 45.993-25.615-2.614 9.435-8.206 23.958-19.454 34.464-.766.716-1.556 1.4-2.356 2.055a76.844 76.844 0 0 0 -24.183 13.495zm0 48c3.3-5.226 16.255-22.38 45.993-25.615-2.614 9.435-8.206 23.958-19.454 34.464-.766.716-1.556 1.4-2.356 2.055a76.844 76.844 0 0 0 -24.183 13.495zm0 48c3.3-5.225 16.25-22.374 45.974-25.614a88.7 88.7 0 0 1 -8.171 19.943c-8.983 15.744-21.681 24.78-37.8 26.979zm-16-288v24.4a76.844 76.844 0 0 0 -24.183-13.5c-.8-.659-1.59-1.339-2.356-2.055-11.18-10.443-16.791-25-19.428-34.462 29.719 3.247 42.672 20.394 45.967 25.618zm0 48v24.4a76.844 76.844 0 0 0 -24.183-13.5c-.8-.659-1.59-1.339-2.356-2.055-11.18-10.443-16.791-25-19.428-34.462 29.719 3.247 42.672 20.394 45.967 25.618zm0 48v24.4a76.844 76.844 0 0 0 -24.183-13.5c-.8-.659-1.59-1.339-2.356-2.055-11.18-10.443-16.791-25-19.428-34.462 29.719 3.247 42.672 20.394 45.967 25.618zm0 48v24.4a76.844 76.844 0 0 0 -24.183-13.5c-.8-.659-1.59-1.339-2.356-2.055-11.18-10.443-16.791-25-19.428-34.462 29.719 3.247 42.672 20.394 45.967 25.618zm0 48v24.4a76.844 76.844 0 0 0 -24.183-13.5c-.8-.659-1.59-1.339-2.356-2.055-11.18-10.443-16.791-25-19.428-34.462 29.719 3.247 42.672 20.394 45.967 25.618zm0 48v24.4a76.844 76.844 0 0 0 -24.183-13.5c-.8-.659-1.59-1.339-2.356-2.055-11.18-10.443-16.791-25-19.428-34.462 29.719 3.247 42.672 20.394 45.967 25.618zm-37.8 42.33a88.813 88.813 0 0 1 -8.172-19.943c29.722 3.241 42.677 20.389 45.972 25.614v21.308c-16.122-2.199-28.82-11.235-37.8-26.979z"/></svg>